<?xml version="1.0" encoding="utf-8"?>
<svg xmlns="http://www.w3.org/2000/svg" xmlns:xlink="http://www.w3.org/1999/xlink" width="600" height="400" viewBox="0 0 2400 1600">
<defs>
  <clipPath id="clip7800">
    <rect x="0" y="0" width="2400" height="1600"/>
  </clipPath>
</defs>
<path clip-path="url(#clip7800)" d="
M0 1600 L2400 1600 L2400 0 L0 0  Z
  " fill="#ffffff" fill-rule="evenodd" fill-opacity="1"/>
<defs>
  <clipPath id="clip7801">
    <rect x="480" y="0" width="1681" height="1600"/>
  </clipPath>
</defs>
<path clip-path="url(#clip7800)" d="
M141.865 1487.47 L2352.76 1487.47 L2352.76 47.2441 L141.865 47.2441  Z
  " fill="#ffffff" fill-rule="evenodd" fill-opacity="1"/>
<defs>
  <clipPath id="clip7802">
    <rect x="141" y="47" width="2212" height="1441"/>
  </clipPath>
</defs>
<polyline clip-path="url(#clip7802)" style="stroke:#000000; stroke-width:2; stroke-opacity:0.1; fill:none" points="
  204.437,1487.47 204.437,47.2441 
  "/>
<polyline clip-path="url(#clip7802)" style="stroke:#000000; stroke-width:2; stroke-opacity:0.1; fill:none" points="
  638.967,1487.47 638.967,47.2441 
  "/>
<polyline clip-path="url(#clip7802)" style="stroke:#000000; stroke-width:2; stroke-opacity:0.1; fill:none" points="
  1073.5,1487.47 1073.5,47.2441 
  "/>
<polyline clip-path="url(#clip7802)" style="stroke:#000000; stroke-width:2; stroke-opacity:0.1; fill:none" points="
  1508.03,1487.47 1508.03,47.2441 
  "/>
<polyline clip-path="url(#clip7802)" style="stroke:#000000; stroke-width:2; stroke-opacity:0.1; fill:none" points="
  1942.56,1487.47 1942.56,47.2441 
  "/>
<polyline clip-path="url(#clip7802)" style="stroke:#000000; stroke-width:2; stroke-opacity:0.1; fill:none" points="
  141.865,1315.46 2352.76,1315.46 
  "/>
<polyline clip-path="url(#clip7802)" style="stroke:#000000; stroke-width:2; stroke-opacity:0.1; fill:none" points="
  141.865,1120.91 2352.76,1120.91 
  "/>
<polyline clip-path="url(#clip7802)" style="stroke:#000000; stroke-width:2; stroke-opacity:0.1; fill:none" points="
  141.865,926.347 2352.76,926.347 
  "/>
<polyline clip-path="url(#clip7802)" style="stroke:#000000; stroke-width:2; stroke-opacity:0.1; fill:none" points="
  141.865,731.79 2352.76,731.79 
  "/>
<polyline clip-path="url(#clip7802)" style="stroke:#000000; stroke-width:2; stroke-opacity:0.1; fill:none" points="
  141.865,537.232 2352.76,537.232 
  "/>
<polyline clip-path="url(#clip7802)" style="stroke:#000000; stroke-width:2; stroke-opacity:0.1; fill:none" points="
  141.865,342.674 2352.76,342.674 
  "/>
<polyline clip-path="url(#clip7802)" style="stroke:#000000; stroke-width:2; stroke-opacity:0.1; fill:none" points="
  141.865,148.117 2352.76,148.117 
  "/>
<polyline clip-path="url(#clip7800)" style="stroke:#000000; stroke-width:4; stroke-opacity:1; fill:none" points="
  141.865,1487.47 2352.76,1487.47 
  "/>
<polyline clip-path="url(#clip7800)" style="stroke:#000000; stroke-width:4; stroke-opacity:1; fill:none" points="
  141.865,1487.47 141.865,47.2441 
  "/>
<polyline clip-path="url(#clip7800)" style="stroke:#000000; stroke-width:4; stroke-opacity:1; fill:none" points="
  204.437,1487.47 204.437,1470.19 
  "/>
<polyline clip-path="url(#clip7800)" style="stroke:#000000; stroke-width:4; stroke-opacity:1; fill:none" points="
  638.967,1487.47 638.967,1470.19 
  "/>
<polyline clip-path="url(#clip7800)" style="stroke:#000000; stroke-width:4; stroke-opacity:1; fill:none" points="
  1073.5,1487.47 1073.5,1470.19 
  "/>
<polyline clip-path="url(#clip7800)" style="stroke:#000000; stroke-width:4; stroke-opacity:1; fill:none" points="
  1508.03,1487.47 1508.03,1470.19 
  "/>
<polyline clip-path="url(#clip7800)" style="stroke:#000000; stroke-width:4; stroke-opacity:1; fill:none" points="
  1942.56,1487.47 1942.56,1470.19 
  "/>
<polyline clip-path="url(#clip7800)" style="stroke:#000000; stroke-width:4; stroke-opacity:1; fill:none" points="
  141.865,1315.46 168.395,1315.46 
  "/>
<polyline clip-path="url(#clip7800)" style="stroke:#000000; stroke-width:4; stroke-opacity:1; fill:none" points="
  141.865,1120.91 168.395,1120.91 
  "/>
<polyline clip-path="url(#clip7800)" style="stroke:#000000; stroke-width:4; stroke-opacity:1; fill:none" points="
  141.865,926.347 168.395,926.347 
  "/>
<polyline clip-path="url(#clip7800)" style="stroke:#000000; stroke-width:4; stroke-opacity:1; fill:none" points="
  141.865,731.79 168.395,731.79 
  "/>
<polyline clip-path="url(#clip7800)" style="stroke:#000000; stroke-width:4; stroke-opacity:1; fill:none" points="
  141.865,537.232 168.395,537.232 
  "/>
<polyline clip-path="url(#clip7800)" style="stroke:#000000; stroke-width:4; stroke-opacity:1; fill:none" points="
  141.865,342.674 168.395,342.674 
  "/>
<polyline clip-path="url(#clip7800)" style="stroke:#000000; stroke-width:4; stroke-opacity:1; fill:none" points="
  141.865,148.117 168.395,148.117 
  "/>
<g clip-path="url(#clip7800)">
<text style="fill:#000000; fill-opacity:1; font-family:Arial,Helvetica Neue,Helvetica,sans-serif; font-size:48px; text-anchor:middle;" transform="rotate(0, 204.437, 1541.47)" x="204.437" y="1541.47">0</text>
</g>
<g clip-path="url(#clip7800)">
<text style="fill:#000000; fill-opacity:1; font-family:Arial,Helvetica Neue,Helvetica,sans-serif; font-size:48px; text-anchor:middle;" transform="rotate(0, 638.967, 1541.47)" x="638.967" y="1541.47">25</text>
</g>
<g clip-path="url(#clip7800)">
<text style="fill:#000000; fill-opacity:1; font-family:Arial,Helvetica Neue,Helvetica,sans-serif; font-size:48px; text-anchor:middle;" transform="rotate(0, 1073.5, 1541.47)" x="1073.5" y="1541.47">50</text>
</g>
<g clip-path="url(#clip7800)">
<text style="fill:#000000; fill-opacity:1; font-family:Arial,Helvetica Neue,Helvetica,sans-serif; font-size:48px; text-anchor:middle;" transform="rotate(0, 1508.03, 1541.47)" x="1508.03" y="1541.47">75</text>
</g>
<g clip-path="url(#clip7800)">
<text style="fill:#000000; fill-opacity:1; font-family:Arial,Helvetica Neue,Helvetica,sans-serif; font-size:48px; text-anchor:middle;" transform="rotate(0, 1942.56, 1541.47)" x="1942.56" y="1541.47">100</text>
</g>
<g clip-path="url(#clip7800)">
<text style="fill:#000000; fill-opacity:1; font-family:Arial,Helvetica Neue,Helvetica,sans-serif; font-size:48px; text-anchor:end;" transform="rotate(0, 117.865, 1332.96)" x="117.865" y="1332.96">-3</text>
</g>
<g clip-path="url(#clip7800)">
<text style="fill:#000000; fill-opacity:1; font-family:Arial,Helvetica Neue,Helvetica,sans-serif; font-size:48px; text-anchor:end;" transform="rotate(0, 117.865, 1138.41)" x="117.865" y="1138.41">-2</text>
</g>
<g clip-path="url(#clip7800)">
<text style="fill:#000000; fill-opacity:1; font-family:Arial,Helvetica Neue,Helvetica,sans-serif; font-size:48px; text-anchor:end;" transform="rotate(0, 117.865, 943.847)" x="117.865" y="943.847">-1</text>
</g>
<g clip-path="url(#clip7800)">
<text style="fill:#000000; fill-opacity:1; font-family:Arial,Helvetica Neue,Helvetica,sans-serif; font-size:48px; text-anchor:end;" transform="rotate(0, 117.865, 749.29)" x="117.865" y="749.29">0</text>
</g>
<g clip-path="url(#clip7800)">
<text style="fill:#000000; fill-opacity:1; font-family:Arial,Helvetica Neue,Helvetica,sans-serif; font-size:48px; text-anchor:end;" transform="rotate(0, 117.865, 554.732)" x="117.865" y="554.732">1</text>
</g>
<g clip-path="url(#clip7800)">
<text style="fill:#000000; fill-opacity:1; font-family:Arial,Helvetica Neue,Helvetica,sans-serif; font-size:48px; text-anchor:end;" transform="rotate(0, 117.865, 360.174)" x="117.865" y="360.174">2</text>
</g>
<g clip-path="url(#clip7800)">
<text style="fill:#000000; fill-opacity:1; font-family:Arial,Helvetica Neue,Helvetica,sans-serif; font-size:48px; text-anchor:end;" transform="rotate(0, 117.865, 165.617)" x="117.865" y="165.617">3</text>
</g>
<polyline clip-path="url(#clip7802)" style="stroke:#009af9; stroke-width:4; stroke-opacity:1; fill:none" points="
  204.437,741.571 221.818,725.124 239.199,687.572 256.581,571.513 273.962,595.571 291.343,823.465 308.724,774.402 326.105,596.581 343.487,943.6 360.868,1059.56 
  378.249,688.687 395.63,803.995 413.012,871.035 430.393,386.437 447.774,749.362 465.155,1029.5 482.536,854.199 499.918,804.732 517.299,861.588 534.68,778.654 
  552.061,681.103 569.443,1014.24 586.824,759.401 604.205,788.729 621.586,468.977 638.967,692.636 656.349,658.544 673.73,908.358 691.111,773.063 708.492,468.933 
  725.874,601.26 743.255,657.334 760.636,638.945 778.017,516.633 795.398,1044.81 812.78,741.805 830.161,646.297 847.542,714.873 864.923,590.219 882.305,696.208 
  899.686,633.125 917.067,678.748 934.448,436.976 951.829,825.295 969.211,1003.75 986.592,640.256 1003.97,941.485 1021.35,760.276 1038.74,619.173 1056.12,640.2 
  1073.5,1053.16 1090.88,832.41 1108.26,1010.92 1125.64,635.791 1143.02,395.361 1160.4,1089.55 1177.79,717.39 1195.17,720.759 1212.55,804.578 1229.93,910.667 
  1247.31,662.304 1264.69,1188.36 1282.07,919.134 1299.45,962.013 1316.84,1119.58 1334.22,572.213 1351.6,1083.32 1368.98,838.866 1386.36,940.936 1403.74,1179.49 
  1421.12,420.043 1438.5,641.224 1455.88,607.664 1473.27,696.651 1490.65,673.097 1508.03,674.251 1525.41,978.705 1542.79,558.39 1560.17,651.159 1577.55,910.986 
  1594.93,613.88 1612.32,898.67 1629.7,817.56 1647.08,822.488 1664.46,585.805 1681.84,534.27 1699.22,989.521 1716.6,535.516 1733.98,884.027 1751.37,556.359 
  1768.75,879.815 1786.13,648.61 1803.51,886.155 1820.89,999.574 1838.27,813.988 1855.65,823.523 1873.03,516.413 1890.42,912.439 1907.8,727.816 1925.18,1034.29 
  1942.56,684.515 1959.94,538.351 1977.32,686.497 1994.7,664.575 2012.08,1234.14 2029.47,915.258 2046.85,717.711 2064.23,640.954 2081.61,707.711 2098.99,723.049 
  2116.37,1056.82 2133.75,792.495 2151.13,858.236 2168.51,1446.71 2185.9,469.622 2203.28,559.688 2220.66,712.759 2238.04,575.586 2255.42,706.211 2272.8,256.307 
  2290.18,985.979 204.437,485.193 221.818,895.812 239.199,721.898 256.581,723.814 273.962,480.375 291.343,548.728 308.724,756.343 326.105,726.143 343.487,1012.71 
  360.868,684.348 378.249,529.685 395.63,624.144 413.012,859.099 430.393,751.541 447.774,1121.13 465.155,495.566 482.536,874.265 499.918,683.306 517.299,752.25 
  534.68,736.346 552.061,836.798 569.443,698.626 586.824,766.968 604.205,660.342 621.586,560.548 638.967,744.651 656.349,592.406 673.73,1002.86 691.111,331.429 
  708.492,376.816 725.874,397.088 743.255,874.232 760.636,838.232 778.017,750.246 795.398,579.58 812.78,630.398 830.161,484.046 847.542,1076.88 864.923,1043.56 
  882.305,661.469 899.686,712.571 917.067,539.663 934.448,654.341 951.829,847.285 969.211,1386.6 986.592,935.05 1003.97,576.799 1021.35,673.086 1038.74,1133.51 
  1056.12,505.447 1073.5,794.681 1090.88,924.066 1108.26,1164.23 1125.64,1063.5 1143.02,996.682 1160.4,779.329 1177.79,556.77 1195.17,422.586 1212.55,852.576 
  1229.93,615.174 1247.31,985.788 1264.69,475.865 1282.07,539.497 1299.45,698.409 1316.84,810.228 1334.22,569.508 1351.6,900.54 1368.98,783.805 1386.36,781.612 
  1403.74,420.029 1421.12,549.876 1438.5,877.626 1455.88,683.102 1473.27,848.182 1490.65,695.865 1508.03,1049.23 1525.41,1073.24 1542.79,852.845 1560.17,351.011 
  1577.55,688.297 1594.93,864.798 1612.32,785.452 1629.7,744.193 1647.08,488.611 1664.46,674.089 1681.84,705.574 1699.22,533.755 1716.6,679.725 1733.98,808.944 
  1751.37,810.736 1768.75,366.787 1786.13,648.037 1803.51,515.299 1820.89,721.285 1838.27,706.393 1855.65,781.435 1873.03,739.542 1890.42,641.646 1907.8,814.814 
  1925.18,904.501 1942.56,598.658 1959.94,569.763 1977.32,667.865 1994.7,837.914 2012.08,834.504 2029.47,462.488 2046.85,884.87 2064.23,874.15 2081.61,907.546 
  2098.99,1210.55 2116.37,724.14 2133.75,1085.36 2151.13,764.478 2168.51,367.394 2185.9,636.457 2203.28,1178.97 2220.66,366.973 2238.04,785.448 2255.42,559.665 
  2272.8,665.721 2290.18,802.18 204.437,738.21 221.818,770.136 239.199,678.573 256.581,938.889 273.962,895.651 291.343,765.507 308.724,750.65 326.105,1035.53 
  343.487,1042.26 360.868,734.907 378.249,1070.56 395.63,622.984 413.012,572.586 430.393,551.967 447.774,860.199 465.155,707.236 482.536,558.795 499.918,764.136 
  517.299,694.374 534.68,718.982 552.061,696.074 569.443,752.351 586.824,617.483 604.205,493.346 621.586,870.143 638.967,749.514 656.349,335.286 673.73,804.3 
  691.111,746.362 708.492,627.009 725.874,681.81 743.255,835.347 760.636,644.285 778.017,841.462 795.398,293.097 812.78,341.493 830.161,654.397 847.542,801.717 
  864.923,731.244 882.305,990.479 899.686,668.225 917.067,686.229 934.448,922.777 951.829,853.831 969.211,992.605 986.592,1071.95 1003.97,1078.58 1021.35,942.994 
  1038.74,747.99 1056.12,736.011 1073.5,996.498 1090.88,479.323 1108.26,672.809 1125.64,898.435 1143.02,674.193 1160.4,704.076 1177.79,572.698 1195.17,658.054 
  1212.55,1047.17 1229.93,1043.51 1247.31,865.577 1264.69,400.807 1282.07,980.588 1299.45,825.06 1316.84,841.131 1334.22,993.335 1351.6,606.842 1368.98,577.583 
  1386.36,502.159 1403.74,827.958 1421.12,694.502 1438.5,489.331 1455.88,672.419 1473.27,621.812 1490.65,538.704 1508.03,868.392 1525.41,708.564 1542.79,359.379 
  1560.17,1072.52 1577.55,1032.17 1594.93,739.163 1612.32,513.043 1629.7,767.791 1647.08,609.864 1664.46,988.603 1681.84,368.093 1699.22,846.256 1716.6,849.563 
  1733.98,721.822 1751.37,319.007 1768.75,498.273 1786.13,651.943 1803.51,729.753 1820.89,1027.04 1838.27,877.191 1855.65,342.066 1873.03,583.043 1890.42,1019.95 
  1907.8,738.246 1925.18,747.979 1942.56,653.736 1959.94,521.121 1977.32,399.532 1994.7,716.59 2012.08,1012.84 2029.47,1001.51 2046.85,496.904 2064.23,922.459 
  2081.61,791.64 2098.99,663.289 2116.37,1135.33 2133.75,929.036 2151.13,830.361 2168.51,634.228 2185.9,586.72 2203.28,873.274 2220.66,633.589 2238.04,682.175 
  2255.42,630.83 2272.8,604.573 2290.18,819.713 204.437,1075.62 221.818,682.994 239.199,732.597 256.581,328.726 273.962,962.669 291.343,854.131 308.724,687.765 
  326.105,307.719 343.487,504.073 360.868,1110.78 378.249,781.655 395.63,590.747 413.012,233.567 430.393,495.56 447.774,631.854 465.155,933.743 482.536,1027.2 
  499.918,741.771 517.299,973.514 534.68,785.786 552.061,741.04 569.443,806.596 586.824,568.849 604.205,848.691 621.586,309.637 638.967,506.697 656.349,669.294 
  673.73,433.495 691.111,765.155 708.492,601.29 725.874,607.009 743.255,769.552 760.636,799.297 778.017,723.887 795.398,755.291 812.78,854.341 830.161,901.693 
  847.542,672.939 864.923,835.928 882.305,1141.43 899.686,543.809 917.067,585.848 934.448,870.126 951.829,684.068 969.211,982.123 986.592,866.148 1003.97,290.391 
  1021.35,507.337 1038.74,810.079 1056.12,619.761 1073.5,624.93 1090.88,872.167 1108.26,904.61 1125.64,692.974 1143.02,687.733 1160.4,752.568 1177.79,852.134 
  1195.17,710.067 1212.55,1096.83 1229.93,505.144 1247.31,971.42 1264.69,614.051 1282.07,805.601 1299.45,799.673 1316.84,738.053 1334.22,726.646 1351.6,899.279 
  1368.98,696.995 1386.36,257.301 1403.74,584.845 1421.12,596.234 1438.5,821.675 1455.88,1050.54 1473.27,1119.7 1490.65,810.645 1508.03,927.146 1525.41,929.985 
  1542.79,737.897 1560.17,773.833 1577.55,824.425 1594.93,497.512 1612.32,879.749 1629.7,795.85 1647.08,1001.73 1664.46,561.811 1681.84,744.347 1699.22,730.724 
  1716.6,853.102 1733.98,617.408 1751.37,815.888 1768.75,639.468 1786.13,537.265 1803.51,773.482 1820.89,1099.4 1838.27,1084.13 1855.65,685.211 1873.03,878.817 
  1890.42,634.148 1907.8,1097.9 1925.18,713.535 1942.56,671.302 1959.94,806.162 1977.32,497.41 1994.7,946.082 2012.08,1139.81 2029.47,965.14 2046.85,816.884 
  2064.23,587.297 2081.61,520.241 2098.99,1273.09 2116.37,372.551 2133.75,1040.24 2151.13,494.445 2168.51,957.278 2185.9,741.027 2203.28,738.918 2220.66,484.69 
  2238.04,831.071 2255.42,1082.35 2272.8,680.033 2290.18,659.499 204.437,1174.11 221.818,568.253 239.199,465.146 256.581,1003.66 273.962,1107.18 291.343,876.167 
  308.724,703.007 326.105,1059.5 343.487,719.7 360.868,361.773 378.249,789.417 395.63,505.412 413.012,904.831 430.393,712.854 447.774,861.046 465.155,1223.84 
  482.536,456.826 499.918,686.998 517.299,976.816 534.68,588.644 552.061,356.767 569.443,736.827 586.824,888.834 604.205,773.575 621.586,779.568 638.967,299.387 
  656.349,738.968 673.73,773.896 691.111,426.25 708.492,560.882 725.874,685.651 743.255,584.723 760.636,992.763 778.017,773.228 795.398,900.915 812.78,633.162 
  830.161,917.621 847.542,713.601 864.923,781.047 882.305,788.954 899.686,803.236 917.067,481.543 934.448,636.374 951.829,708.277 969.211,617.11 986.592,808.791 
  1003.97,749.447 1021.35,693.272 1038.74,767.428 1056.12,826.83 1073.5,496.342 1090.88,662.666 1108.26,929.467 1125.64,650.53 1143.02,688.101 1160.4,451.629 
  1177.79,807.083 1195.17,572.857 1212.55,835.06 1229.93,699.212 1247.31,803.482 1264.69,732.358 1282.07,933.976 1299.45,796.988 1316.84,914.365 1334.22,646.95 
  1351.6,747.001 1368.98,784.831 1386.36,446.928 1403.74,694.739 1421.12,535.832 1438.5,934.528 1455.88,833.733 1473.27,553.867 1490.65,833.952 1508.03,693.038 
  1525.41,667.323 1542.79,861.388 1560.17,724.693 1577.55,892.857 1594.93,357.491 1612.32,528.827 1629.7,412.009 1647.08,543.05 1664.46,434.321 1681.84,620.232 
  1699.22,961.961 1716.6,908.293 1733.98,583.088 1751.37,642.163 1768.75,553.084 1786.13,950.855 1803.51,763.82 1820.89,892.552 1838.27,530.17 1855.65,466.039 
  1873.03,644.417 1890.42,1135.07 1907.8,1106.16 1925.18,1024.99 1942.56,1096.37 1959.94,683.125 1977.32,863.444 1994.7,536.462 2012.08,714.984 2029.47,773.31 
  2046.85,767.137 2064.23,632.24 2081.61,850.009 2098.99,1002.65 2116.37,1104.34 2133.75,504.463 2151.13,483.22 2168.51,658.103 2185.9,618.891 2203.28,972.493 
  2220.66,782.461 2238.04,305.773 2255.42,498.777 2272.8,484.417 2290.18,923.919 204.437,735.47 221.818,943.873 239.199,741.617 256.581,855.347 273.962,454.646 
  291.343,962.896 308.724,760.298 326.105,768.848 343.487,731.22 360.868,714.254 378.249,768.858 395.63,774.678 413.012,696.1 430.393,584.204 447.774,365.959 
  465.155,703.576 482.536,483.986 499.918,474.507 517.299,1042.02 534.68,815.881 552.061,917.131 569.443,985.014 586.824,846.162 604.205,795.124 621.586,608.392 
  638.967,624.777 656.349,434.135 673.73,911.435 691.111,479.373 708.492,290.079 725.874,624.663 743.255,892.811 760.636,453.65 778.017,800.569 795.398,736.457 
  812.78,874.868 830.161,1047.93 847.542,574.953 864.923,698.964 882.305,592.409 899.686,652.132 917.067,640.848 934.448,831.964 951.829,1093.53 969.211,701.874 
  986.592,997.086 1003.97,634.85 1021.35,973.678 1038.74,887.142 1056.12,930.723 1073.5,954.056 1090.88,679.892 1108.26,890.146 1125.64,486.028 1143.02,548.547 
  1160.4,678.839 1177.79,833.294 1195.17,807.682 1212.55,674.316 1229.93,598.114 1247.31,1001.59 1264.69,359.681 1282.07,902.08 1299.45,515.529 1316.84,752.927 
  1334.22,1108.76 1351.6,956.275 1368.98,1007.94 1386.36,513.128 1403.74,1069.53 1421.12,898.88 1438.5,775.495 1455.88,704.223 1473.27,602.651 1490.65,983.204 
  1508.03,538.535 1525.41,414.871 1542.79,621.188 1560.17,957.848 1577.55,934.991 1594.93,315.057 1612.32,787.284 1629.7,609.532 1647.08,672.808 1664.46,801.894 
  1681.84,899.362 1699.22,784.132 1716.6,698.76 1733.98,843.533 1751.37,1002.8 1768.75,981.999 1786.13,210.757 1803.51,506.552 1820.89,733.925 1838.27,737.868 
  1855.65,387.014 1873.03,317.248 1890.42,558.22 1907.8,1201.22 1925.18,1016.89 1942.56,691.588 1959.94,631.401 1977.32,621.575 1994.7,460.477 2012.08,795.61 
  2029.47,782.573 2046.85,673.128 2064.23,764.779 2081.61,826.738 2098.99,737.087 2116.37,800.048 2133.75,1042.37 2151.13,827.711 2168.51,861.783 2185.9,515.182 
  2203.28,839.659 2220.66,935.206 2238.04,654.901 2255.42,291.708 2272.8,910.717 2290.18,1086.45 204.437,368.774 221.818,758.55 239.199,783.286 256.581,791.6 
  273.962,418.894 291.343,561.419 308.724,601.124 326.105,995.206 343.487,980.203 360.868,921.011 378.249,742.867 395.63,643.626 413.012,802.697 430.393,739.595 
  447.774,593.925 465.155,789.844 482.536,449.837 499.918,859.986 517.299,700.99 534.68,725.906 552.061,527.515 569.443,603.988 586.824,904.158 604.205,602.812 
  621.586,306.118 638.967,719.348 656.349,933.549 673.73,766.496 691.111,560.369 708.492,803.027 725.874,619.448 743.255,504.978 760.636,701.327 778.017,88.0053 
  795.398,800.513 812.78,687.58 830.161,990.622 847.542,835.406 864.923,597.229 882.305,498.037 899.686,800.172 917.067,524.186 934.448,546.91 951.829,669.409 
  969.211,664.378 986.592,967.567 1003.97,640.552 1021.35,679.12 1038.74,1235.16 1056.12,1218.44 1073.5,841.406 1090.88,574.186 1108.26,760.324 1125.64,645.182 
  1143.02,853.885 1160.4,793.439 1177.79,621.534 1195.17,612.741 1212.55,915.284 1229.93,827.721 1247.31,655.627 1264.69,568.84 1282.07,972.524 1299.45,593.208 
  1316.84,892.257 1334.22,571.677 1351.6,1095.58 1368.98,898.214 1386.36,886.28 1403.74,812.119 1421.12,554.372 1438.5,920.096 1455.88,890.632 1473.27,793.158 
  1490.65,906.333 1508.03,784.751 1525.41,750.794 1542.79,849.388 1560.17,888.247 1577.55,680.797 1594.93,977.855 1612.32,717.995 1629.7,563.028 1647.08,765.414 
  1664.46,504.766 1681.84,339.861 1699.22,586.773 1716.6,771.46 1733.98,552.412 1751.37,377.395 1768.75,800.31 1786.13,974.523 1803.51,798.136 1820.89,800.271 
  1838.27,1072.46 1855.65,676.645 1873.03,726.022 1890.42,792.385 1907.8,795.991 1925.18,971.51 1942.56,504.827 1959.94,814.806 1977.32,918.821 1994.7,500.321 
  2012.08,816.333 2029.47,653.485 2046.85,1034.23 2064.23,1149.15 2081.61,739.752 2098.99,736.802 2116.37,742.18 2133.75,960.791 2151.13,617.206 2168.51,930.522 
  2185.9,969.431 2203.28,976.629 2220.66,663.427 2238.04,973.734 2255.42,947.543 2272.8,405.934 2290.18,1171.3 204.437,489.554 221.818,767.998 239.199,789.978 
  256.581,1040.95 273.962,757.276 291.343,646.282 308.724,708.262 326.105,893.677 343.487,822.778 360.868,236.606 378.249,772.161 395.63,554.029 413.012,951.267 
  430.393,924.52 447.774,699.108 465.155,488.835 482.536,751.589 499.918,775.102 517.299,629.822 534.68,659.708 552.061,744.269 569.443,711.569 586.824,829.429 
  604.205,596.448 621.586,789.858 638.967,430.676 656.349,746.291 673.73,924.276 691.111,1021.35 708.492,485.835 725.874,607.839 743.255,625.391 760.636,791.783 
  778.017,857.878 795.398,656.891 812.78,956.804 830.161,352.367 847.542,548.274 864.923,867.377 882.305,544.263 899.686,606.484 917.067,630.796 934.448,803.138 
  951.829,619.239 969.211,298.337 986.592,648.048 1003.97,746.608 1021.35,535.997 1038.74,893.858 1056.12,739.554 1073.5,722.778 1090.88,320.63 1108.26,464.244 
  1125.64,673.89 1143.02,695.461 1160.4,809.95 1177.79,712.854 1195.17,487.378 1212.55,834.179 1229.93,605.719 1247.31,407.108 1264.69,1004.37 1282.07,1025.68 
  1299.45,624.2 1316.84,770.129 1334.22,893.141 1351.6,870.437 1368.98,339.203 1386.36,951.427 1403.74,676.757 1421.12,618.383 1438.5,568.752 1455.88,706.737 
  1473.27,651.306 1490.65,589.782 1508.03,365.619 1525.41,952.573 1542.79,764.479 1560.17,950.47 1577.55,733.97 1594.93,730.105 1612.32,800.8 1629.7,714.396 
  1647.08,878.194 1664.46,666.308 1681.84,728.138 1699.22,744.632 1716.6,395.789 1733.98,796.547 1751.37,608.094 1768.75,879.486 1786.13,756.087 1803.51,871.592 
  1820.89,697.694 1838.27,856.404 1855.65,828.871 1873.03,539.427 1890.42,625.657 1907.8,721.376 1925.18,693.563 1942.56,857.719 1959.94,699.554 1977.32,793.979 
  1994.7,925.939 2012.08,542.103 2029.47,650.82 2046.85,564.683 2064.23,709.747 2081.61,868.821 2098.99,594.135 2116.37,741.985 2133.75,318.221 2151.13,1097.02 
  2168.51,764.586 2185.9,1012.04 2203.28,753.962 2220.66,760.632 2238.04,1323.96 2255.42,796.206 2272.8,297.957 2290.18,979.536 204.437,745.168 221.818,855.613 
  239.199,740.133 256.581,548.42 273.962,896.241 291.343,501.617 308.724,700.15 326.105,834.181 343.487,724.685 360.868,788.484 378.249,654.533 395.63,523.56 
  413.012,819.401 430.393,882.12 447.774,730.427 465.155,826.857 482.536,679.525 499.918,797.558 517.299,886.473 534.68,423.278 552.061,895.963 569.443,446.414 
  586.824,968.794 604.205,834.889 621.586,420.616 638.967,510.325 656.349,833.925 673.73,1004.86 691.111,746.252 708.492,765.856 725.874,677.951 743.255,570.818 
  760.636,574.921 778.017,740.006 795.398,747.149 812.78,715.589 830.161,826.889 847.542,548.899 864.923,951.831 882.305,629.58 899.686,423.605 917.067,887.752 
  934.448,716.087 951.829,671.805 969.211,667.432 986.592,681.459 1003.97,936.302 1021.35,778.129 1038.74,505.746 1056.12,853.608 1073.5,1008.18 1090.88,639.101 
  1108.26,724.207 1125.64,740.174 1143.02,625.135 1160.4,979.07 1177.79,815.706 1195.17,705.14 1212.55,979.369 1229.93,696.093 1247.31,489.748 1264.69,489.587 
  1282.07,927.226 1299.45,852.455 1316.84,732.651 1334.22,816.291 1351.6,584.395 1368.98,527.87 1386.36,888.068 1403.74,726.345 1421.12,752.5 1438.5,723.045 
  1455.88,715.468 1473.27,943.534 1490.65,891.373 1508.03,949.092 1525.41,501.309 1542.79,869.017 1560.17,757.937 1577.55,479.94 1594.93,869.294 1612.32,518.07 
  1629.7,328.939 1647.08,607.795 1664.46,607.881 1681.84,735.097 1699.22,705.682 1716.6,604.259 1733.98,926.835 1751.37,775.288 1768.75,417.773 1786.13,682.348 
  1803.51,856.449 1820.89,927.4 1838.27,627.349 1855.65,610.25 1873.03,1092.26 1890.42,907.647 1907.8,529.818 1925.18,383.126 1942.56,773.841 1959.94,949.149 
  1977.32,823.475 1994.7,658.683 2012.08,397.227 2029.47,735.798 2046.85,480.814 2064.23,1010.71 2081.61,726.06 2098.99,475.66 2116.37,878.654 2133.75,575.516 
  2151.13,816.893 2168.51,817.082 2185.9,742.455 2203.28,901.388 2220.66,803.781 2238.04,819.107 2255.42,830.392 2272.8,841.242 2290.18,482.623 204.437,836.53 
  221.818,981.024 239.199,758.44 256.581,486.352 273.962,635.295 291.343,838.618 308.724,820.699 326.105,1068.93 343.487,823.686 360.868,739.998 378.249,560.512 
  395.63,479.261 413.012,968.807 430.393,678.888 447.774,684.638 465.155,537.608 482.536,507.179 499.918,615.262 517.299,362.817 534.68,438.465 552.061,507.195 
  569.443,825.86 586.824,450.485 604.205,507.674 621.586,300.708 638.967,524.574 656.349,978.496 673.73,795.61 691.111,993.09 708.492,717.71 725.874,670.663 
  743.255,591.358 760.636,857.961 778.017,734.548 795.398,707.297 812.78,603.723 830.161,632.731 847.542,1063.78 864.923,921.483 882.305,900.425 899.686,495.743 
  917.067,933.79 934.448,736.286 951.829,922.84 969.211,706.14 986.592,717.216 1003.97,753.173 1021.35,890.077 1038.74,515.294 1056.12,767.922 1073.5,497.288 
  1090.88,450.024 1108.26,712.178 1125.64,879.693 1143.02,728.354 1160.4,782.349 1177.79,919.148 1195.17,851.115 1212.55,795.337 1229.93,358.673 1247.31,643.359 
  1264.69,726.857 1282.07,753.995 1299.45,740.016 1316.84,595.149 1334.22,521.317 1351.6,427.427 1368.98,359.632 1386.36,704.17 1403.74,802.876 1421.12,767.409 
  1438.5,311.479 1455.88,530.382 1473.27,644.764 1490.65,646.676 1508.03,565.714 1525.41,690.901 1542.79,1176.52 1560.17,1131.11 1577.55,799.24 1594.93,882.194 
  1612.32,826.799 1629.7,805.274 1647.08,830.926 1664.46,784.113 1681.84,598.454 1699.22,728.714 1716.6,805.031 1733.98,854.691 1751.37,725.853 1768.75,717.148 
  1786.13,969.249 1803.51,1014.82 1820.89,548.509 1838.27,631.376 1855.65,474.674 1873.03,593.743 1890.42,1011.28 1907.8,921.172 1925.18,875.75 1942.56,672.505 
  1959.94,857.55 1977.32,376.754 1994.7,573.983 2012.08,635.443 2029.47,908.01 2046.85,778.098 2064.23,579.649 2081.61,721.294 2098.99,682.794 2116.37,1164.71 
  2133.75,876.985 2151.13,719.753 2168.51,849.481 2185.9,440.863 2203.28,559.765 2220.66,929.499 2238.04,792.267 2255.42,837.343 2272.8,346.023 2290.18,796.657 
  
  "/>
<path clip-path="url(#clip7800)" d="
M1989.93 251.724 L2280.76 251.724 L2280.76 130.764 L1989.93 130.764  Z
  " fill="#ffffff" fill-rule="evenodd" fill-opacity="1"/>
<polyline clip-path="url(#clip7800)" style="stroke:#000000; stroke-width:4; stroke-opacity:1; fill:none" points="
  1989.93,251.724 2280.76,251.724 2280.76,130.764 1989.93,130.764 1989.93,251.724 
  "/>
<polyline clip-path="url(#clip7800)" style="stroke:#009af9; stroke-width:4; stroke-opacity:1; fill:none" points="
  2013.93,191.244 2157.93,191.244 
  "/>
<g clip-path="url(#clip7800)">
<text style="fill:#000000; fill-opacity:1; font-family:Arial,Helvetica Neue,Helvetica,sans-serif; font-size:48px; text-anchor:start;" transform="rotate(0, 2181.93, 208.744)" x="2181.93" y="208.744">y1</text>
</g>
</svg>
