<?xml version="1.0" encoding="utf-8"?>
<svg xmlns="http://www.w3.org/2000/svg" xmlns:xlink="http://www.w3.org/1999/xlink" width="500" height="500" viewBox="0 0 2000 2000">
<defs>
  <clipPath id="clip1200">
    <rect x="0" y="0" width="2000" height="2000"/>
  </clipPath>
</defs>
<path clip-path="url(#clip1200)" d="
M0 2000 L2000 2000 L2000 0 L0 0  Z
  " fill="#ffffff" fill-rule="evenodd" fill-opacity="1"/>
<defs>
  <clipPath id="clip1201">
    <rect x="400" y="200" width="1401" height="1401"/>
  </clipPath>
</defs>
<path clip-path="url(#clip1200)" d="
M203.423 533.375 L619.423 533.375 L619.423 151.017 L203.423 151.017  Z
  " fill="#ffffff" fill-rule="evenodd" fill-opacity="1"/>
<defs>
  <clipPath id="clip1202">
    <rect x="203" y="151" width="417" height="383"/>
  </clipPath>
</defs>
<polyline clip-path="url(#clip1202)" style="stroke:#000000; stroke-width:2; stroke-opacity:0.1; fill:none" points="
  264.253,533.375 264.253,151.017 
  "/>
<polyline clip-path="url(#clip1202)" style="stroke:#000000; stroke-width:2; stroke-opacity:0.1; fill:none" points="
  346.014,533.375 346.014,151.017 
  "/>
<polyline clip-path="url(#clip1202)" style="stroke:#000000; stroke-width:2; stroke-opacity:0.1; fill:none" points="
  427.775,533.375 427.775,151.017 
  "/>
<polyline clip-path="url(#clip1202)" style="stroke:#000000; stroke-width:2; stroke-opacity:0.1; fill:none" points="
  509.536,533.375 509.536,151.017 
  "/>
<polyline clip-path="url(#clip1202)" style="stroke:#000000; stroke-width:2; stroke-opacity:0.1; fill:none" points="
  591.297,533.375 591.297,151.017 
  "/>
<polyline clip-path="url(#clip1202)" style="stroke:#000000; stroke-width:2; stroke-opacity:0.1; fill:none" points="
  203.423,493.506 619.423,493.506 
  "/>
<polyline clip-path="url(#clip1202)" style="stroke:#000000; stroke-width:2; stroke-opacity:0.1; fill:none" points="
  203.423,424.216 619.423,424.216 
  "/>
<polyline clip-path="url(#clip1202)" style="stroke:#000000; stroke-width:2; stroke-opacity:0.1; fill:none" points="
  203.423,354.925 619.423,354.925 
  "/>
<polyline clip-path="url(#clip1202)" style="stroke:#000000; stroke-width:2; stroke-opacity:0.1; fill:none" points="
  203.423,285.634 619.423,285.634 
  "/>
<polyline clip-path="url(#clip1202)" style="stroke:#000000; stroke-width:2; stroke-opacity:0.1; fill:none" points="
  203.423,216.343 619.423,216.343 
  "/>
<polyline clip-path="url(#clip1200)" style="stroke:#000000; stroke-width:4; stroke-opacity:1; fill:none" points="
  203.423,533.375 619.423,533.375 
  "/>
<polyline clip-path="url(#clip1200)" style="stroke:#000000; stroke-width:4; stroke-opacity:1; fill:none" points="
  203.423,533.375 203.423,151.017 
  "/>
<polyline clip-path="url(#clip1200)" style="stroke:#000000; stroke-width:4; stroke-opacity:1; fill:none" points="
  264.253,533.375 264.253,527.639 
  "/>
<polyline clip-path="url(#clip1200)" style="stroke:#000000; stroke-width:4; stroke-opacity:1; fill:none" points="
  346.014,533.375 346.014,527.639 
  "/>
<polyline clip-path="url(#clip1200)" style="stroke:#000000; stroke-width:4; stroke-opacity:1; fill:none" points="
  427.775,533.375 427.775,527.639 
  "/>
<polyline clip-path="url(#clip1200)" style="stroke:#000000; stroke-width:4; stroke-opacity:1; fill:none" points="
  509.536,533.375 509.536,527.639 
  "/>
<polyline clip-path="url(#clip1200)" style="stroke:#000000; stroke-width:4; stroke-opacity:1; fill:none" points="
  591.297,533.375 591.297,527.639 
  "/>
<polyline clip-path="url(#clip1200)" style="stroke:#000000; stroke-width:4; stroke-opacity:1; fill:none" points="
  203.423,493.506 209.663,493.506 
  "/>
<polyline clip-path="url(#clip1200)" style="stroke:#000000; stroke-width:4; stroke-opacity:1; fill:none" points="
  203.423,424.216 209.663,424.216 
  "/>
<polyline clip-path="url(#clip1200)" style="stroke:#000000; stroke-width:4; stroke-opacity:1; fill:none" points="
  203.423,354.925 209.663,354.925 
  "/>
<polyline clip-path="url(#clip1200)" style="stroke:#000000; stroke-width:4; stroke-opacity:1; fill:none" points="
  203.423,285.634 209.663,285.634 
  "/>
<polyline clip-path="url(#clip1200)" style="stroke:#000000; stroke-width:4; stroke-opacity:1; fill:none" points="
  203.423,216.343 209.663,216.343 
  "/>
<g clip-path="url(#clip1200)">
<text style="fill:#000000; fill-opacity:1; font-family:Arial,Helvetica Neue,Helvetica,sans-serif; font-size:48px; text-anchor:middle;" transform="rotate(0, 264.253, 585.375)" x="264.253" y="585.375">2.5</text>
</g>
<g clip-path="url(#clip1200)">
<text style="fill:#000000; fill-opacity:1; font-family:Arial,Helvetica Neue,Helvetica,sans-serif; font-size:48px; text-anchor:middle;" transform="rotate(0, 346.014, 585.375)" x="346.014" y="585.375">5.0</text>
</g>
<g clip-path="url(#clip1200)">
<text style="fill:#000000; fill-opacity:1; font-family:Arial,Helvetica Neue,Helvetica,sans-serif; font-size:48px; text-anchor:middle;" transform="rotate(0, 427.775, 585.375)" x="427.775" y="585.375">7.5</text>
</g>
<g clip-path="url(#clip1200)">
<text style="fill:#000000; fill-opacity:1; font-family:Arial,Helvetica Neue,Helvetica,sans-serif; font-size:48px; text-anchor:middle;" transform="rotate(0, 509.536, 585.375)" x="509.536" y="585.375">10.0</text>
</g>
<g clip-path="url(#clip1200)">
<text style="fill:#000000; fill-opacity:1; font-family:Arial,Helvetica Neue,Helvetica,sans-serif; font-size:48px; text-anchor:middle;" transform="rotate(0, 591.297, 585.375)" x="591.297" y="585.375">12.5</text>
</g>
<g clip-path="url(#clip1200)">
<text style="fill:#000000; fill-opacity:1; font-family:Arial,Helvetica Neue,Helvetica,sans-serif; font-size:48px; text-anchor:end;" transform="rotate(0, 183.423, 511.006)" x="183.423" y="511.006">4.0</text>
</g>
<g clip-path="url(#clip1200)">
<text style="fill:#000000; fill-opacity:1; font-family:Arial,Helvetica Neue,Helvetica,sans-serif; font-size:48px; text-anchor:end;" transform="rotate(0, 183.423, 441.716)" x="183.423" y="441.716">4.1</text>
</g>
<g clip-path="url(#clip1200)">
<text style="fill:#000000; fill-opacity:1; font-family:Arial,Helvetica Neue,Helvetica,sans-serif; font-size:48px; text-anchor:end;" transform="rotate(0, 183.423, 372.425)" x="183.423" y="372.425">4.2</text>
</g>
<g clip-path="url(#clip1200)">
<text style="fill:#000000; fill-opacity:1; font-family:Arial,Helvetica Neue,Helvetica,sans-serif; font-size:48px; text-anchor:end;" transform="rotate(0, 183.423, 303.134)" x="183.423" y="303.134">4.3</text>
</g>
<g clip-path="url(#clip1200)">
<text style="fill:#000000; fill-opacity:1; font-family:Arial,Helvetica Neue,Helvetica,sans-serif; font-size:48px; text-anchor:end;" transform="rotate(0, 183.423, 233.843)" x="183.423" y="233.843">4.4</text>
</g>
<g clip-path="url(#clip1200)">
<text style="fill:#000000; fill-opacity:1; font-family:Arial,Helvetica Neue,Helvetica,sans-serif; font-size:84px; text-anchor:middle;" transform="rotate(0, 411.423, 73.2)" x="411.423" y="73.2">tvcl</text>
</g>
<polyline clip-path="url(#clip1202)" style="stroke:#009af9; stroke-width:4; stroke-opacity:1; fill:none" points="
  215.196,493.506 247.901,333.384 280.605,161.838 313.309,499.344 346.014,522.553 378.718,458.538 411.423,390.296 444.127,424.563 476.831,428.186 509.536,426.428 
  542.24,426.394 574.945,426.426 607.649,426.436 
  "/>
<path clip-path="url(#clip1200)" d="
M843.327 533.375 L1259.33 533.375 L1259.33 151.017 L843.327 151.017  Z
  " fill="#ffffff" fill-rule="evenodd" fill-opacity="1"/>
<defs>
  <clipPath id="clip1203">
    <rect x="843" y="151" width="417" height="383"/>
  </clipPath>
</defs>
<polyline clip-path="url(#clip1203)" style="stroke:#000000; stroke-width:2; stroke-opacity:0.1; fill:none" points="
  904.157,533.375 904.157,151.017 
  "/>
<polyline clip-path="url(#clip1203)" style="stroke:#000000; stroke-width:2; stroke-opacity:0.1; fill:none" points="
  985.918,533.375 985.918,151.017 
  "/>
<polyline clip-path="url(#clip1203)" style="stroke:#000000; stroke-width:2; stroke-opacity:0.1; fill:none" points="
  1067.68,533.375 1067.68,151.017 
  "/>
<polyline clip-path="url(#clip1203)" style="stroke:#000000; stroke-width:2; stroke-opacity:0.1; fill:none" points="
  1149.44,533.375 1149.44,151.017 
  "/>
<polyline clip-path="url(#clip1203)" style="stroke:#000000; stroke-width:2; stroke-opacity:0.1; fill:none" points="
  1231.2,533.375 1231.2,151.017 
  "/>
<polyline clip-path="url(#clip1203)" style="stroke:#000000; stroke-width:2; stroke-opacity:0.1; fill:none" points="
  843.327,519.513 1259.33,519.513 
  "/>
<polyline clip-path="url(#clip1203)" style="stroke:#000000; stroke-width:2; stroke-opacity:0.1; fill:none" points="
  843.327,430.094 1259.33,430.094 
  "/>
<polyline clip-path="url(#clip1203)" style="stroke:#000000; stroke-width:2; stroke-opacity:0.1; fill:none" points="
  843.327,340.676 1259.33,340.676 
  "/>
<polyline clip-path="url(#clip1203)" style="stroke:#000000; stroke-width:2; stroke-opacity:0.1; fill:none" points="
  843.327,251.257 1259.33,251.257 
  "/>
<polyline clip-path="url(#clip1203)" style="stroke:#000000; stroke-width:2; stroke-opacity:0.1; fill:none" points="
  843.327,161.838 1259.33,161.838 
  "/>
<polyline clip-path="url(#clip1200)" style="stroke:#000000; stroke-width:4; stroke-opacity:1; fill:none" points="
  843.327,533.375 1259.33,533.375 
  "/>
<polyline clip-path="url(#clip1200)" style="stroke:#000000; stroke-width:4; stroke-opacity:1; fill:none" points="
  843.327,533.375 843.327,151.017 
  "/>
<polyline clip-path="url(#clip1200)" style="stroke:#000000; stroke-width:4; stroke-opacity:1; fill:none" points="
  904.157,533.375 904.157,527.639 
  "/>
<polyline clip-path="url(#clip1200)" style="stroke:#000000; stroke-width:4; stroke-opacity:1; fill:none" points="
  985.918,533.375 985.918,527.639 
  "/>
<polyline clip-path="url(#clip1200)" style="stroke:#000000; stroke-width:4; stroke-opacity:1; fill:none" points="
  1067.68,533.375 1067.68,527.639 
  "/>
<polyline clip-path="url(#clip1200)" style="stroke:#000000; stroke-width:4; stroke-opacity:1; fill:none" points="
  1149.44,533.375 1149.44,527.639 
  "/>
<polyline clip-path="url(#clip1200)" style="stroke:#000000; stroke-width:4; stroke-opacity:1; fill:none" points="
  1231.2,533.375 1231.2,527.639 
  "/>
<polyline clip-path="url(#clip1200)" style="stroke:#000000; stroke-width:4; stroke-opacity:1; fill:none" points="
  843.327,519.513 849.567,519.513 
  "/>
<polyline clip-path="url(#clip1200)" style="stroke:#000000; stroke-width:4; stroke-opacity:1; fill:none" points="
  843.327,430.094 849.567,430.094 
  "/>
<polyline clip-path="url(#clip1200)" style="stroke:#000000; stroke-width:4; stroke-opacity:1; fill:none" points="
  843.327,340.676 849.567,340.676 
  "/>
<polyline clip-path="url(#clip1200)" style="stroke:#000000; stroke-width:4; stroke-opacity:1; fill:none" points="
  843.327,251.257 849.567,251.257 
  "/>
<polyline clip-path="url(#clip1200)" style="stroke:#000000; stroke-width:4; stroke-opacity:1; fill:none" points="
  843.327,161.838 849.567,161.838 
  "/>
<g clip-path="url(#clip1200)">
<text style="fill:#000000; fill-opacity:1; font-family:Arial,Helvetica Neue,Helvetica,sans-serif; font-size:48px; text-anchor:middle;" transform="rotate(0, 904.157, 585.375)" x="904.157" y="585.375">2.5</text>
</g>
<g clip-path="url(#clip1200)">
<text style="fill:#000000; fill-opacity:1; font-family:Arial,Helvetica Neue,Helvetica,sans-serif; font-size:48px; text-anchor:middle;" transform="rotate(0, 985.918, 585.375)" x="985.918" y="585.375">5.0</text>
</g>
<g clip-path="url(#clip1200)">
<text style="fill:#000000; fill-opacity:1; font-family:Arial,Helvetica Neue,Helvetica,sans-serif; font-size:48px; text-anchor:middle;" transform="rotate(0, 1067.68, 585.375)" x="1067.68" y="585.375">7.5</text>
</g>
<g clip-path="url(#clip1200)">
<text style="fill:#000000; fill-opacity:1; font-family:Arial,Helvetica Neue,Helvetica,sans-serif; font-size:48px; text-anchor:middle;" transform="rotate(0, 1149.44, 585.375)" x="1149.44" y="585.375">10.0</text>
</g>
<g clip-path="url(#clip1200)">
<text style="fill:#000000; fill-opacity:1; font-family:Arial,Helvetica Neue,Helvetica,sans-serif; font-size:48px; text-anchor:middle;" transform="rotate(0, 1231.2, 585.375)" x="1231.2" y="585.375">12.5</text>
</g>
<g clip-path="url(#clip1200)">
<text style="fill:#000000; fill-opacity:1; font-family:Arial,Helvetica Neue,Helvetica,sans-serif; font-size:48px; text-anchor:end;" transform="rotate(0, 823.327, 537.013)" x="823.327" y="537.013">60.0</text>
</g>
<g clip-path="url(#clip1200)">
<text style="fill:#000000; fill-opacity:1; font-family:Arial,Helvetica Neue,Helvetica,sans-serif; font-size:48px; text-anchor:end;" transform="rotate(0, 823.327, 447.594)" x="823.327" y="447.594">62.5</text>
</g>
<g clip-path="url(#clip1200)">
<text style="fill:#000000; fill-opacity:1; font-family:Arial,Helvetica Neue,Helvetica,sans-serif; font-size:48px; text-anchor:end;" transform="rotate(0, 823.327, 358.176)" x="823.327" y="358.176">65.0</text>
</g>
<g clip-path="url(#clip1200)">
<text style="fill:#000000; fill-opacity:1; font-family:Arial,Helvetica Neue,Helvetica,sans-serif; font-size:48px; text-anchor:end;" transform="rotate(0, 823.327, 268.757)" x="823.327" y="268.757">67.5</text>
</g>
<g clip-path="url(#clip1200)">
<text style="fill:#000000; fill-opacity:1; font-family:Arial,Helvetica Neue,Helvetica,sans-serif; font-size:48px; text-anchor:end;" transform="rotate(0, 823.327, 179.338)" x="823.327" y="179.338">70.0</text>
</g>
<g clip-path="url(#clip1200)">
<text style="fill:#000000; fill-opacity:1; font-family:Arial,Helvetica Neue,Helvetica,sans-serif; font-size:84px; text-anchor:middle;" transform="rotate(0, 1051.33, 73.2)" x="1051.33" y="73.2">tvv</text>
</g>
<polyline clip-path="url(#clip1203)" style="stroke:#009af9; stroke-width:4; stroke-opacity:1; fill:none" points="
  855.101,161.838 887.805,291.826 920.509,442.819 953.214,522.553 985.918,424.762 1018.62,401.276 1051.33,403.881 1084.03,420.666 1116.74,417.332 1149.44,418.281 
  1182.14,418.303 1214.85,418.309 1247.55,418.289 
  "/>
<path clip-path="url(#clip1200)" d="
M1536.76 533.375 L1952.76 533.375 L1952.76 151.017 L1536.76 151.017  Z
  " fill="#ffffff" fill-rule="evenodd" fill-opacity="1"/>
<defs>
  <clipPath id="clip1204">
    <rect x="1536" y="151" width="417" height="383"/>
  </clipPath>
</defs>
<polyline clip-path="url(#clip1204)" style="stroke:#000000; stroke-width:2; stroke-opacity:0.1; fill:none" points="
  1597.59,533.375 1597.59,151.017 
  "/>
<polyline clip-path="url(#clip1204)" style="stroke:#000000; stroke-width:2; stroke-opacity:0.1; fill:none" points="
  1679.35,533.375 1679.35,151.017 
  "/>
<polyline clip-path="url(#clip1204)" style="stroke:#000000; stroke-width:2; stroke-opacity:0.1; fill:none" points="
  1761.11,533.375 1761.11,151.017 
  "/>
<polyline clip-path="url(#clip1204)" style="stroke:#000000; stroke-width:2; stroke-opacity:0.1; fill:none" points="
  1842.87,533.375 1842.87,151.017 
  "/>
<polyline clip-path="url(#clip1204)" style="stroke:#000000; stroke-width:2; stroke-opacity:0.1; fill:none" points="
  1924.63,533.375 1924.63,151.017 
  "/>
<polyline clip-path="url(#clip1204)" style="stroke:#000000; stroke-width:2; stroke-opacity:0.1; fill:none" points="
  1536.76,522.553 1952.76,522.553 
  "/>
<polyline clip-path="url(#clip1204)" style="stroke:#000000; stroke-width:2; stroke-opacity:0.1; fill:none" points="
  1536.76,445.526 1952.76,445.526 
  "/>
<polyline clip-path="url(#clip1204)" style="stroke:#000000; stroke-width:2; stroke-opacity:0.1; fill:none" points="
  1536.76,368.499 1952.76,368.499 
  "/>
<polyline clip-path="url(#clip1204)" style="stroke:#000000; stroke-width:2; stroke-opacity:0.1; fill:none" points="
  1536.76,291.472 1952.76,291.472 
  "/>
<polyline clip-path="url(#clip1204)" style="stroke:#000000; stroke-width:2; stroke-opacity:0.1; fill:none" points="
  1536.76,214.444 1952.76,214.444 
  "/>
<polyline clip-path="url(#clip1200)" style="stroke:#000000; stroke-width:4; stroke-opacity:1; fill:none" points="
  1536.76,533.375 1952.76,533.375 
  "/>
<polyline clip-path="url(#clip1200)" style="stroke:#000000; stroke-width:4; stroke-opacity:1; fill:none" points="
  1536.76,533.375 1536.76,151.017 
  "/>
<polyline clip-path="url(#clip1200)" style="stroke:#000000; stroke-width:4; stroke-opacity:1; fill:none" points="
  1597.59,533.375 1597.59,527.639 
  "/>
<polyline clip-path="url(#clip1200)" style="stroke:#000000; stroke-width:4; stroke-opacity:1; fill:none" points="
  1679.35,533.375 1679.35,527.639 
  "/>
<polyline clip-path="url(#clip1200)" style="stroke:#000000; stroke-width:4; stroke-opacity:1; fill:none" points="
  1761.11,533.375 1761.11,527.639 
  "/>
<polyline clip-path="url(#clip1200)" style="stroke:#000000; stroke-width:4; stroke-opacity:1; fill:none" points="
  1842.87,533.375 1842.87,527.639 
  "/>
<polyline clip-path="url(#clip1200)" style="stroke:#000000; stroke-width:4; stroke-opacity:1; fill:none" points="
  1924.63,533.375 1924.63,527.639 
  "/>
<polyline clip-path="url(#clip1200)" style="stroke:#000000; stroke-width:4; stroke-opacity:1; fill:none" points="
  1536.76,522.553 1543,522.553 
  "/>
<polyline clip-path="url(#clip1200)" style="stroke:#000000; stroke-width:4; stroke-opacity:1; fill:none" points="
  1536.76,445.526 1543,445.526 
  "/>
<polyline clip-path="url(#clip1200)" style="stroke:#000000; stroke-width:4; stroke-opacity:1; fill:none" points="
  1536.76,368.499 1543,368.499 
  "/>
<polyline clip-path="url(#clip1200)" style="stroke:#000000; stroke-width:4; stroke-opacity:1; fill:none" points="
  1536.76,291.472 1543,291.472 
  "/>
<polyline clip-path="url(#clip1200)" style="stroke:#000000; stroke-width:4; stroke-opacity:1; fill:none" points="
  1536.76,214.444 1543,214.444 
  "/>
<g clip-path="url(#clip1200)">
<text style="fill:#000000; fill-opacity:1; font-family:Arial,Helvetica Neue,Helvetica,sans-serif; font-size:48px; text-anchor:middle;" transform="rotate(0, 1597.59, 585.375)" x="1597.59" y="585.375">2.5</text>
</g>
<g clip-path="url(#clip1200)">
<text style="fill:#000000; fill-opacity:1; font-family:Arial,Helvetica Neue,Helvetica,sans-serif; font-size:48px; text-anchor:middle;" transform="rotate(0, 1679.35, 585.375)" x="1679.35" y="585.375">5.0</text>
</g>
<g clip-path="url(#clip1200)">
<text style="fill:#000000; fill-opacity:1; font-family:Arial,Helvetica Neue,Helvetica,sans-serif; font-size:48px; text-anchor:middle;" transform="rotate(0, 1761.11, 585.375)" x="1761.11" y="585.375">7.5</text>
</g>
<g clip-path="url(#clip1200)">
<text style="fill:#000000; fill-opacity:1; font-family:Arial,Helvetica Neue,Helvetica,sans-serif; font-size:48px; text-anchor:middle;" transform="rotate(0, 1842.87, 585.375)" x="1842.87" y="585.375">10.0</text>
</g>
<g clip-path="url(#clip1200)">
<text style="fill:#000000; fill-opacity:1; font-family:Arial,Helvetica Neue,Helvetica,sans-serif; font-size:48px; text-anchor:middle;" transform="rotate(0, 1924.63, 585.375)" x="1924.63" y="585.375">12.5</text>
</g>
<g clip-path="url(#clip1200)">
<text style="fill:#000000; fill-opacity:1; font-family:Arial,Helvetica Neue,Helvetica,sans-serif; font-size:48px; text-anchor:end;" transform="rotate(0, 1516.76, 540.053)" x="1516.76" y="540.053">-0.70</text>
</g>
<g clip-path="url(#clip1200)">
<text style="fill:#000000; fill-opacity:1; font-family:Arial,Helvetica Neue,Helvetica,sans-serif; font-size:48px; text-anchor:end;" transform="rotate(0, 1516.76, 463.026)" x="1516.76" y="463.026">-0.68</text>
</g>
<g clip-path="url(#clip1200)">
<text style="fill:#000000; fill-opacity:1; font-family:Arial,Helvetica Neue,Helvetica,sans-serif; font-size:48px; text-anchor:end;" transform="rotate(0, 1516.76, 385.999)" x="1516.76" y="385.999">-0.66</text>
</g>
<g clip-path="url(#clip1200)">
<text style="fill:#000000; fill-opacity:1; font-family:Arial,Helvetica Neue,Helvetica,sans-serif; font-size:48px; text-anchor:end;" transform="rotate(0, 1516.76, 308.972)" x="1516.76" y="308.972">-0.64</text>
</g>
<g clip-path="url(#clip1200)">
<text style="fill:#000000; fill-opacity:1; font-family:Arial,Helvetica Neue,Helvetica,sans-serif; font-size:48px; text-anchor:end;" transform="rotate(0, 1516.76, 231.944)" x="1516.76" y="231.944">-0.62</text>
</g>
<g clip-path="url(#clip1200)">
<text style="fill:#000000; fill-opacity:1; font-family:Arial,Helvetica Neue,Helvetica,sans-serif; font-size:84px; text-anchor:middle;" transform="rotate(0, 1744.76, 73.2)" x="1744.76" y="73.2">pmoncl</text>
</g>
<polyline clip-path="url(#clip1204)" style="stroke:#009af9; stroke-width:4; stroke-opacity:1; fill:none" points="
  1548.53,522.553 1581.23,468.819 1613.94,395.649 1646.64,244.831 1679.35,161.838 1712.05,197.256 1744.76,253.156 1777.46,241.716 1810.16,240.37 1842.87,240.915 
  1875.57,240.994 1908.28,240.967 1940.98,240.974 
  "/>
<path clip-path="url(#clip1200)" d="
M203.423 1200.04 L619.423 1200.04 L619.423 817.683 L203.423 817.683  Z
  " fill="#ffffff" fill-rule="evenodd" fill-opacity="1"/>
<defs>
  <clipPath id="clip1205">
    <rect x="203" y="817" width="417" height="383"/>
  </clipPath>
</defs>
<polyline clip-path="url(#clip1205)" style="stroke:#000000; stroke-width:2; stroke-opacity:0.1; fill:none" points="
  264.253,1200.04 264.253,817.683 
  "/>
<polyline clip-path="url(#clip1205)" style="stroke:#000000; stroke-width:2; stroke-opacity:0.1; fill:none" points="
  346.014,1200.04 346.014,817.683 
  "/>
<polyline clip-path="url(#clip1205)" style="stroke:#000000; stroke-width:2; stroke-opacity:0.1; fill:none" points="
  427.775,1200.04 427.775,817.683 
  "/>
<polyline clip-path="url(#clip1205)" style="stroke:#000000; stroke-width:2; stroke-opacity:0.1; fill:none" points="
  509.536,1200.04 509.536,817.683 
  "/>
<polyline clip-path="url(#clip1205)" style="stroke:#000000; stroke-width:2; stroke-opacity:0.1; fill:none" points="
  591.297,1200.04 591.297,817.683 
  "/>
<polyline clip-path="url(#clip1205)" style="stroke:#000000; stroke-width:2; stroke-opacity:0.1; fill:none" points="
  203.423,1180.61 619.423,1180.61 
  "/>
<polyline clip-path="url(#clip1205)" style="stroke:#000000; stroke-width:2; stroke-opacity:0.1; fill:none" points="
  203.423,1092.99 619.423,1092.99 
  "/>
<polyline clip-path="url(#clip1205)" style="stroke:#000000; stroke-width:2; stroke-opacity:0.1; fill:none" points="
  203.423,1005.37 619.423,1005.37 
  "/>
<polyline clip-path="url(#clip1205)" style="stroke:#000000; stroke-width:2; stroke-opacity:0.1; fill:none" points="
  203.423,917.75 619.423,917.75 
  "/>
<polyline clip-path="url(#clip1205)" style="stroke:#000000; stroke-width:2; stroke-opacity:0.1; fill:none" points="
  203.423,830.131 619.423,830.131 
  "/>
<polyline clip-path="url(#clip1200)" style="stroke:#000000; stroke-width:4; stroke-opacity:1; fill:none" points="
  203.423,1200.04 619.423,1200.04 
  "/>
<polyline clip-path="url(#clip1200)" style="stroke:#000000; stroke-width:4; stroke-opacity:1; fill:none" points="
  203.423,1200.04 203.423,817.683 
  "/>
<polyline clip-path="url(#clip1200)" style="stroke:#000000; stroke-width:4; stroke-opacity:1; fill:none" points="
  264.253,1200.04 264.253,1194.31 
  "/>
<polyline clip-path="url(#clip1200)" style="stroke:#000000; stroke-width:4; stroke-opacity:1; fill:none" points="
  346.014,1200.04 346.014,1194.31 
  "/>
<polyline clip-path="url(#clip1200)" style="stroke:#000000; stroke-width:4; stroke-opacity:1; fill:none" points="
  427.775,1200.04 427.775,1194.31 
  "/>
<polyline clip-path="url(#clip1200)" style="stroke:#000000; stroke-width:4; stroke-opacity:1; fill:none" points="
  509.536,1200.04 509.536,1194.31 
  "/>
<polyline clip-path="url(#clip1200)" style="stroke:#000000; stroke-width:4; stroke-opacity:1; fill:none" points="
  591.297,1200.04 591.297,1194.31 
  "/>
<polyline clip-path="url(#clip1200)" style="stroke:#000000; stroke-width:4; stroke-opacity:1; fill:none" points="
  203.423,1180.61 209.663,1180.61 
  "/>
<polyline clip-path="url(#clip1200)" style="stroke:#000000; stroke-width:4; stroke-opacity:1; fill:none" points="
  203.423,1092.99 209.663,1092.99 
  "/>
<polyline clip-path="url(#clip1200)" style="stroke:#000000; stroke-width:4; stroke-opacity:1; fill:none" points="
  203.423,1005.37 209.663,1005.37 
  "/>
<polyline clip-path="url(#clip1200)" style="stroke:#000000; stroke-width:4; stroke-opacity:1; fill:none" points="
  203.423,917.75 209.663,917.75 
  "/>
<polyline clip-path="url(#clip1200)" style="stroke:#000000; stroke-width:4; stroke-opacity:1; fill:none" points="
  203.423,830.131 209.663,830.131 
  "/>
<g clip-path="url(#clip1200)">
<text style="fill:#000000; fill-opacity:1; font-family:Arial,Helvetica Neue,Helvetica,sans-serif; font-size:48px; text-anchor:middle;" transform="rotate(0, 264.253, 1252.04)" x="264.253" y="1252.04">2.5</text>
</g>
<g clip-path="url(#clip1200)">
<text style="fill:#000000; fill-opacity:1; font-family:Arial,Helvetica Neue,Helvetica,sans-serif; font-size:48px; text-anchor:middle;" transform="rotate(0, 346.014, 1252.04)" x="346.014" y="1252.04">5.0</text>
</g>
<g clip-path="url(#clip1200)">
<text style="fill:#000000; fill-opacity:1; font-family:Arial,Helvetica Neue,Helvetica,sans-serif; font-size:48px; text-anchor:middle;" transform="rotate(0, 427.775, 1252.04)" x="427.775" y="1252.04">7.5</text>
</g>
<g clip-path="url(#clip1200)">
<text style="fill:#000000; fill-opacity:1; font-family:Arial,Helvetica Neue,Helvetica,sans-serif; font-size:48px; text-anchor:middle;" transform="rotate(0, 509.536, 1252.04)" x="509.536" y="1252.04">10.0</text>
</g>
<g clip-path="url(#clip1200)">
<text style="fill:#000000; fill-opacity:1; font-family:Arial,Helvetica Neue,Helvetica,sans-serif; font-size:48px; text-anchor:middle;" transform="rotate(0, 591.297, 1252.04)" x="591.297" y="1252.04">12.5</text>
</g>
<g clip-path="url(#clip1200)">
<text style="fill:#000000; fill-opacity:1; font-family:Arial,Helvetica Neue,Helvetica,sans-serif; font-size:48px; text-anchor:end;" transform="rotate(0, 183.423, 1198.11)" x="183.423" y="1198.11">0.070</text>
</g>
<g clip-path="url(#clip1200)">
<text style="fill:#000000; fill-opacity:1; font-family:Arial,Helvetica Neue,Helvetica,sans-serif; font-size:48px; text-anchor:end;" transform="rotate(0, 183.423, 1110.49)" x="183.423" y="1110.49">0.075</text>
</g>
<g clip-path="url(#clip1200)">
<text style="fill:#000000; fill-opacity:1; font-family:Arial,Helvetica Neue,Helvetica,sans-serif; font-size:48px; text-anchor:end;" transform="rotate(0, 183.423, 1022.87)" x="183.423" y="1022.87">0.080</text>
</g>
<g clip-path="url(#clip1200)">
<text style="fill:#000000; fill-opacity:1; font-family:Arial,Helvetica Neue,Helvetica,sans-serif; font-size:48px; text-anchor:end;" transform="rotate(0, 183.423, 935.25)" x="183.423" y="935.25">0.085</text>
</g>
<g clip-path="url(#clip1200)">
<text style="fill:#000000; fill-opacity:1; font-family:Arial,Helvetica Neue,Helvetica,sans-serif; font-size:48px; text-anchor:end;" transform="rotate(0, 183.423, 847.631)" x="183.423" y="847.631">0.090</text>
</g>
<g clip-path="url(#clip1200)">
<text style="fill:#000000; fill-opacity:1; font-family:Arial,Helvetica Neue,Helvetica,sans-serif; font-size:84px; text-anchor:middle;" transform="rotate(0, 411.423, 739.867)" x="411.423" y="739.867">Ω₁,₁</text>
</g>
<polyline clip-path="url(#clip1205)" style="stroke:#009af9; stroke-width:4; stroke-opacity:1; fill:none" points="
  215.196,830.131 247.901,828.505 280.605,832.272 313.309,890.619 346.014,925.342 378.718,992.367 411.423,1189.22 444.127,1182.67 476.831,1183.44 509.536,1183.23 
  542.24,1182.71 574.945,1181.35 607.649,1181.29 
  "/>
<path clip-path="url(#clip1200)" d="
M843.327 1200.04 L1259.33 1200.04 L1259.33 817.683 L843.327 817.683  Z
  " fill="#ffffff" fill-rule="evenodd" fill-opacity="1"/>
<defs>
  <clipPath id="clip1206">
    <rect x="843" y="817" width="417" height="383"/>
  </clipPath>
</defs>
<polyline clip-path="url(#clip1206)" style="stroke:#000000; stroke-width:2; stroke-opacity:0.1; fill:none" points="
  904.157,1200.04 904.157,817.683 
  "/>
<polyline clip-path="url(#clip1206)" style="stroke:#000000; stroke-width:2; stroke-opacity:0.1; fill:none" points="
  985.918,1200.04 985.918,817.683 
  "/>
<polyline clip-path="url(#clip1206)" style="stroke:#000000; stroke-width:2; stroke-opacity:0.1; fill:none" points="
  1067.68,1200.04 1067.68,817.683 
  "/>
<polyline clip-path="url(#clip1206)" style="stroke:#000000; stroke-width:2; stroke-opacity:0.1; fill:none" points="
  1149.44,1200.04 1149.44,817.683 
  "/>
<polyline clip-path="url(#clip1206)" style="stroke:#000000; stroke-width:2; stroke-opacity:0.1; fill:none" points="
  1231.2,1200.04 1231.2,817.683 
  "/>
<polyline clip-path="url(#clip1206)" style="stroke:#000000; stroke-width:2; stroke-opacity:0.1; fill:none" points="
  843.327,1170.92 1259.33,1170.92 
  "/>
<polyline clip-path="url(#clip1206)" style="stroke:#000000; stroke-width:2; stroke-opacity:0.1; fill:none" points="
  843.327,1085.32 1259.33,1085.32 
  "/>
<polyline clip-path="url(#clip1206)" style="stroke:#000000; stroke-width:2; stroke-opacity:0.1; fill:none" points="
  843.327,999.713 1259.33,999.713 
  "/>
<polyline clip-path="url(#clip1206)" style="stroke:#000000; stroke-width:2; stroke-opacity:0.1; fill:none" points="
  843.327,914.109 1259.33,914.109 
  "/>
<polyline clip-path="url(#clip1206)" style="stroke:#000000; stroke-width:2; stroke-opacity:0.1; fill:none" points="
  843.327,828.505 1259.33,828.505 
  "/>
<polyline clip-path="url(#clip1200)" style="stroke:#000000; stroke-width:4; stroke-opacity:1; fill:none" points="
  843.327,1200.04 1259.33,1200.04 
  "/>
<polyline clip-path="url(#clip1200)" style="stroke:#000000; stroke-width:4; stroke-opacity:1; fill:none" points="
  843.327,1200.04 843.327,817.683 
  "/>
<polyline clip-path="url(#clip1200)" style="stroke:#000000; stroke-width:4; stroke-opacity:1; fill:none" points="
  904.157,1200.04 904.157,1194.31 
  "/>
<polyline clip-path="url(#clip1200)" style="stroke:#000000; stroke-width:4; stroke-opacity:1; fill:none" points="
  985.918,1200.04 985.918,1194.31 
  "/>
<polyline clip-path="url(#clip1200)" style="stroke:#000000; stroke-width:4; stroke-opacity:1; fill:none" points="
  1067.68,1200.04 1067.68,1194.31 
  "/>
<polyline clip-path="url(#clip1200)" style="stroke:#000000; stroke-width:4; stroke-opacity:1; fill:none" points="
  1149.44,1200.04 1149.44,1194.31 
  "/>
<polyline clip-path="url(#clip1200)" style="stroke:#000000; stroke-width:4; stroke-opacity:1; fill:none" points="
  1231.2,1200.04 1231.2,1194.31 
  "/>
<polyline clip-path="url(#clip1200)" style="stroke:#000000; stroke-width:4; stroke-opacity:1; fill:none" points="
  843.327,1170.92 849.567,1170.92 
  "/>
<polyline clip-path="url(#clip1200)" style="stroke:#000000; stroke-width:4; stroke-opacity:1; fill:none" points="
  843.327,1085.32 849.567,1085.32 
  "/>
<polyline clip-path="url(#clip1200)" style="stroke:#000000; stroke-width:4; stroke-opacity:1; fill:none" points="
  843.327,999.713 849.567,999.713 
  "/>
<polyline clip-path="url(#clip1200)" style="stroke:#000000; stroke-width:4; stroke-opacity:1; fill:none" points="
  843.327,914.109 849.567,914.109 
  "/>
<polyline clip-path="url(#clip1200)" style="stroke:#000000; stroke-width:4; stroke-opacity:1; fill:none" points="
  843.327,828.505 849.567,828.505 
  "/>
<g clip-path="url(#clip1200)">
<text style="fill:#000000; fill-opacity:1; font-family:Arial,Helvetica Neue,Helvetica,sans-serif; font-size:48px; text-anchor:middle;" transform="rotate(0, 904.157, 1252.04)" x="904.157" y="1252.04">2.5</text>
</g>
<g clip-path="url(#clip1200)">
<text style="fill:#000000; fill-opacity:1; font-family:Arial,Helvetica Neue,Helvetica,sans-serif; font-size:48px; text-anchor:middle;" transform="rotate(0, 985.918, 1252.04)" x="985.918" y="1252.04">5.0</text>
</g>
<g clip-path="url(#clip1200)">
<text style="fill:#000000; fill-opacity:1; font-family:Arial,Helvetica Neue,Helvetica,sans-serif; font-size:48px; text-anchor:middle;" transform="rotate(0, 1067.68, 1252.04)" x="1067.68" y="1252.04">7.5</text>
</g>
<g clip-path="url(#clip1200)">
<text style="fill:#000000; fill-opacity:1; font-family:Arial,Helvetica Neue,Helvetica,sans-serif; font-size:48px; text-anchor:middle;" transform="rotate(0, 1149.44, 1252.04)" x="1149.44" y="1252.04">10.0</text>
</g>
<g clip-path="url(#clip1200)">
<text style="fill:#000000; fill-opacity:1; font-family:Arial,Helvetica Neue,Helvetica,sans-serif; font-size:48px; text-anchor:middle;" transform="rotate(0, 1231.2, 1252.04)" x="1231.2" y="1252.04">12.5</text>
</g>
<g clip-path="url(#clip1200)">
<text style="fill:#000000; fill-opacity:1; font-family:Arial,Helvetica Neue,Helvetica,sans-serif; font-size:48px; text-anchor:end;" transform="rotate(0, 823.327, 1188.42)" x="823.327" y="1188.42">0.05</text>
</g>
<g clip-path="url(#clip1200)">
<text style="fill:#000000; fill-opacity:1; font-family:Arial,Helvetica Neue,Helvetica,sans-serif; font-size:48px; text-anchor:end;" transform="rotate(0, 823.327, 1102.82)" x="823.327" y="1102.82">0.06</text>
</g>
<g clip-path="url(#clip1200)">
<text style="fill:#000000; fill-opacity:1; font-family:Arial,Helvetica Neue,Helvetica,sans-serif; font-size:48px; text-anchor:end;" transform="rotate(0, 823.327, 1017.21)" x="823.327" y="1017.21">0.07</text>
</g>
<g clip-path="url(#clip1200)">
<text style="fill:#000000; fill-opacity:1; font-family:Arial,Helvetica Neue,Helvetica,sans-serif; font-size:48px; text-anchor:end;" transform="rotate(0, 823.327, 931.609)" x="823.327" y="931.609">0.08</text>
</g>
<g clip-path="url(#clip1200)">
<text style="fill:#000000; fill-opacity:1; font-family:Arial,Helvetica Neue,Helvetica,sans-serif; font-size:48px; text-anchor:end;" transform="rotate(0, 823.327, 846.005)" x="823.327" y="846.005">0.09</text>
</g>
<g clip-path="url(#clip1200)">
<text style="fill:#000000; fill-opacity:1; font-family:Arial,Helvetica Neue,Helvetica,sans-serif; font-size:84px; text-anchor:middle;" transform="rotate(0, 1051.33, 739.867)" x="1051.33" y="739.867">Ω₂,₂</text>
</g>
<polyline clip-path="url(#clip1206)" style="stroke:#009af9; stroke-width:4; stroke-opacity:1; fill:none" points="
  855.101,828.505 887.805,834.241 920.509,845.757 953.214,919.221 985.918,956.544 1018.62,1023.17 1051.33,1189.22 1084.03,1184.61 1116.74,1185.98 1149.44,1186.05 
  1182.14,1186.04 1214.85,1186.22 1247.55,1186.26 
  "/>
<path clip-path="url(#clip1200)" d="
M1536.76 1200.04 L1952.76 1200.04 L1952.76 817.683 L1536.76 817.683  Z
  " fill="#ffffff" fill-rule="evenodd" fill-opacity="1"/>
<defs>
  <clipPath id="clip1207">
    <rect x="1536" y="817" width="417" height="383"/>
  </clipPath>
</defs>
<polyline clip-path="url(#clip1207)" style="stroke:#000000; stroke-width:2; stroke-opacity:0.1; fill:none" points="
  1597.59,1200.04 1597.59,817.683 
  "/>
<polyline clip-path="url(#clip1207)" style="stroke:#000000; stroke-width:2; stroke-opacity:0.1; fill:none" points="
  1679.35,1200.04 1679.35,817.683 
  "/>
<polyline clip-path="url(#clip1207)" style="stroke:#000000; stroke-width:2; stroke-opacity:0.1; fill:none" points="
  1761.11,1200.04 1761.11,817.683 
  "/>
<polyline clip-path="url(#clip1207)" style="stroke:#000000; stroke-width:2; stroke-opacity:0.1; fill:none" points="
  1842.87,1200.04 1842.87,817.683 
  "/>
<polyline clip-path="url(#clip1207)" style="stroke:#000000; stroke-width:2; stroke-opacity:0.1; fill:none" points="
  1924.63,1200.04 1924.63,817.683 
  "/>
<polyline clip-path="url(#clip1207)" style="stroke:#000000; stroke-width:2; stroke-opacity:0.1; fill:none" points="
  1536.76,1144.02 1952.76,1144.02 
  "/>
<polyline clip-path="url(#clip1207)" style="stroke:#000000; stroke-width:2; stroke-opacity:0.1; fill:none" points="
  1536.76,1039.69 1952.76,1039.69 
  "/>
<polyline clip-path="url(#clip1207)" style="stroke:#000000; stroke-width:2; stroke-opacity:0.1; fill:none" points="
  1536.76,935.36 1952.76,935.36 
  "/>
<polyline clip-path="url(#clip1207)" style="stroke:#000000; stroke-width:2; stroke-opacity:0.1; fill:none" points="
  1536.76,831.028 1952.76,831.028 
  "/>
<polyline clip-path="url(#clip1200)" style="stroke:#000000; stroke-width:4; stroke-opacity:1; fill:none" points="
  1536.76,1200.04 1952.76,1200.04 
  "/>
<polyline clip-path="url(#clip1200)" style="stroke:#000000; stroke-width:4; stroke-opacity:1; fill:none" points="
  1536.76,1200.04 1536.76,817.683 
  "/>
<polyline clip-path="url(#clip1200)" style="stroke:#000000; stroke-width:4; stroke-opacity:1; fill:none" points="
  1597.59,1200.04 1597.59,1194.31 
  "/>
<polyline clip-path="url(#clip1200)" style="stroke:#000000; stroke-width:4; stroke-opacity:1; fill:none" points="
  1679.35,1200.04 1679.35,1194.31 
  "/>
<polyline clip-path="url(#clip1200)" style="stroke:#000000; stroke-width:4; stroke-opacity:1; fill:none" points="
  1761.11,1200.04 1761.11,1194.31 
  "/>
<polyline clip-path="url(#clip1200)" style="stroke:#000000; stroke-width:4; stroke-opacity:1; fill:none" points="
  1842.87,1200.04 1842.87,1194.31 
  "/>
<polyline clip-path="url(#clip1200)" style="stroke:#000000; stroke-width:4; stroke-opacity:1; fill:none" points="
  1924.63,1200.04 1924.63,1194.31 
  "/>
<polyline clip-path="url(#clip1200)" style="stroke:#000000; stroke-width:4; stroke-opacity:1; fill:none" points="
  1536.76,1144.02 1543,1144.02 
  "/>
<polyline clip-path="url(#clip1200)" style="stroke:#000000; stroke-width:4; stroke-opacity:1; fill:none" points="
  1536.76,1039.69 1543,1039.69 
  "/>
<polyline clip-path="url(#clip1200)" style="stroke:#000000; stroke-width:4; stroke-opacity:1; fill:none" points="
  1536.76,935.36 1543,935.36 
  "/>
<polyline clip-path="url(#clip1200)" style="stroke:#000000; stroke-width:4; stroke-opacity:1; fill:none" points="
  1536.76,831.028 1543,831.028 
  "/>
<g clip-path="url(#clip1200)">
<text style="fill:#000000; fill-opacity:1; font-family:Arial,Helvetica Neue,Helvetica,sans-serif; font-size:48px; text-anchor:middle;" transform="rotate(0, 1597.59, 1252.04)" x="1597.59" y="1252.04">2.5</text>
</g>
<g clip-path="url(#clip1200)">
<text style="fill:#000000; fill-opacity:1; font-family:Arial,Helvetica Neue,Helvetica,sans-serif; font-size:48px; text-anchor:middle;" transform="rotate(0, 1679.35, 1252.04)" x="1679.35" y="1252.04">5.0</text>
</g>
<g clip-path="url(#clip1200)">
<text style="fill:#000000; fill-opacity:1; font-family:Arial,Helvetica Neue,Helvetica,sans-serif; font-size:48px; text-anchor:middle;" transform="rotate(0, 1761.11, 1252.04)" x="1761.11" y="1252.04">7.5</text>
</g>
<g clip-path="url(#clip1200)">
<text style="fill:#000000; fill-opacity:1; font-family:Arial,Helvetica Neue,Helvetica,sans-serif; font-size:48px; text-anchor:middle;" transform="rotate(0, 1842.87, 1252.04)" x="1842.87" y="1252.04">10.0</text>
</g>
<g clip-path="url(#clip1200)">
<text style="fill:#000000; fill-opacity:1; font-family:Arial,Helvetica Neue,Helvetica,sans-serif; font-size:48px; text-anchor:middle;" transform="rotate(0, 1924.63, 1252.04)" x="1924.63" y="1252.04">12.5</text>
</g>
<g clip-path="url(#clip1200)">
<text style="fill:#000000; fill-opacity:1; font-family:Arial,Helvetica Neue,Helvetica,sans-serif; font-size:48px; text-anchor:end;" transform="rotate(0, 1516.76, 1161.52)" x="1516.76" y="1161.52">0.0385</text>
</g>
<g clip-path="url(#clip1200)">
<text style="fill:#000000; fill-opacity:1; font-family:Arial,Helvetica Neue,Helvetica,sans-serif; font-size:48px; text-anchor:end;" transform="rotate(0, 1516.76, 1057.19)" x="1516.76" y="1057.19">0.0390</text>
</g>
<g clip-path="url(#clip1200)">
<text style="fill:#000000; fill-opacity:1; font-family:Arial,Helvetica Neue,Helvetica,sans-serif; font-size:48px; text-anchor:end;" transform="rotate(0, 1516.76, 952.86)" x="1516.76" y="952.86">0.0395</text>
</g>
<g clip-path="url(#clip1200)">
<text style="fill:#000000; fill-opacity:1; font-family:Arial,Helvetica Neue,Helvetica,sans-serif; font-size:48px; text-anchor:end;" transform="rotate(0, 1516.76, 848.528)" x="1516.76" y="848.528">0.0400</text>
</g>
<g clip-path="url(#clip1200)">
<text style="fill:#000000; fill-opacity:1; font-family:Arial,Helvetica Neue,Helvetica,sans-serif; font-size:84px; text-anchor:middle;" transform="rotate(0, 1744.76, 739.867)" x="1744.76" y="739.867">σ_prop</text>
</g>
<polyline clip-path="url(#clip1207)" style="stroke:#009af9; stroke-width:4; stroke-opacity:1; fill:none" points="
  1548.53,831.028 1581.23,1189.22 1613.94,828.505 1646.64,994.57 1679.35,1042.43 1712.05,1015.5 1744.76,969.514 1777.46,971.17 1810.16,974.513 1842.87,974.505 
  1875.57,974.386 1908.28,974.34 1940.98,974.403 
  "/>
<path clip-path="url(#clip1200)" d="
M203.423 1866.71 L619.423 1866.71 L619.423 1484.35 L203.423 1484.35  Z
  " fill="#ffffff" fill-rule="evenodd" fill-opacity="1"/>
<defs>
  <clipPath id="clip1208">
    <rect x="203" y="1484" width="417" height="383"/>
  </clipPath>
</defs>
<polyline clip-path="url(#clip1208)" style="stroke:#000000; stroke-width:2; stroke-opacity:0.1; fill:none" points="
  264.253,1866.71 264.253,1484.35 
  "/>
<polyline clip-path="url(#clip1208)" style="stroke:#000000; stroke-width:2; stroke-opacity:0.1; fill:none" points="
  346.014,1866.71 346.014,1484.35 
  "/>
<polyline clip-path="url(#clip1208)" style="stroke:#000000; stroke-width:2; stroke-opacity:0.1; fill:none" points="
  427.775,1866.71 427.775,1484.35 
  "/>
<polyline clip-path="url(#clip1208)" style="stroke:#000000; stroke-width:2; stroke-opacity:0.1; fill:none" points="
  509.536,1866.71 509.536,1484.35 
  "/>
<polyline clip-path="url(#clip1208)" style="stroke:#000000; stroke-width:2; stroke-opacity:0.1; fill:none" points="
  591.297,1866.71 591.297,1484.35 
  "/>
<polyline clip-path="url(#clip1208)" style="stroke:#000000; stroke-width:2; stroke-opacity:0.1; fill:none" points="
  203.423,1295.37 619.423,1295.37 
  "/>
<polyline clip-path="url(#clip1208)" style="stroke:#000000; stroke-width:2; stroke-opacity:0.1; fill:none" points="
  203.423,1295.37 619.423,1295.37 
  "/>
<polyline clip-path="url(#clip1208)" style="stroke:#000000; stroke-width:2; stroke-opacity:0.1; fill:none" points="
  203.423,1295.37 619.423,1295.37 
  "/>
<polyline clip-path="url(#clip1208)" style="stroke:#000000; stroke-width:2; stroke-opacity:0.1; fill:none" points="
  203.423,1295.37 619.423,1295.37 
  "/>
<polyline clip-path="url(#clip1208)" style="stroke:#000000; stroke-width:2; stroke-opacity:0.1; fill:none" points="
  203.423,1295.37 619.423,1295.37 
  "/>
<polyline clip-path="url(#clip1200)" style="stroke:#000000; stroke-width:4; stroke-opacity:1; fill:none" points="
  203.423,1866.71 619.423,1866.71 
  "/>
<polyline clip-path="url(#clip1200)" style="stroke:#000000; stroke-width:4; stroke-opacity:1; fill:none" points="
  203.423,1866.71 203.423,1484.35 
  "/>
<polyline clip-path="url(#clip1200)" style="stroke:#000000; stroke-width:4; stroke-opacity:1; fill:none" points="
  264.253,1866.71 264.253,1860.97 
  "/>
<polyline clip-path="url(#clip1200)" style="stroke:#000000; stroke-width:4; stroke-opacity:1; fill:none" points="
  346.014,1866.71 346.014,1860.97 
  "/>
<polyline clip-path="url(#clip1200)" style="stroke:#000000; stroke-width:4; stroke-opacity:1; fill:none" points="
  427.775,1866.71 427.775,1860.97 
  "/>
<polyline clip-path="url(#clip1200)" style="stroke:#000000; stroke-width:4; stroke-opacity:1; fill:none" points="
  509.536,1866.71 509.536,1860.97 
  "/>
<polyline clip-path="url(#clip1200)" style="stroke:#000000; stroke-width:4; stroke-opacity:1; fill:none" points="
  591.297,1866.71 591.297,1860.97 
  "/>
<polyline clip-path="url(#clip1200)" style="stroke:#000000; stroke-width:4; stroke-opacity:1; fill:none" points="
  203.423,1295.37 209.663,1295.37 
  "/>
<polyline clip-path="url(#clip1200)" style="stroke:#000000; stroke-width:4; stroke-opacity:1; fill:none" points="
  203.423,1295.37 209.663,1295.37 
  "/>
<polyline clip-path="url(#clip1200)" style="stroke:#000000; stroke-width:4; stroke-opacity:1; fill:none" points="
  203.423,1295.37 209.663,1295.37 
  "/>
<polyline clip-path="url(#clip1200)" style="stroke:#000000; stroke-width:4; stroke-opacity:1; fill:none" points="
  203.423,1295.37 209.663,1295.37 
  "/>
<polyline clip-path="url(#clip1200)" style="stroke:#000000; stroke-width:4; stroke-opacity:1; fill:none" points="
  203.423,1295.37 209.663,1295.37 
  "/>
<g clip-path="url(#clip1200)">
<text style="fill:#000000; fill-opacity:1; font-family:Arial,Helvetica Neue,Helvetica,sans-serif; font-size:48px; text-anchor:middle;" transform="rotate(0, 264.253, 1918.71)" x="264.253" y="1918.71">2.5</text>
</g>
<g clip-path="url(#clip1200)">
<text style="fill:#000000; fill-opacity:1; font-family:Arial,Helvetica Neue,Helvetica,sans-serif; font-size:48px; text-anchor:middle;" transform="rotate(0, 346.014, 1918.71)" x="346.014" y="1918.71">5.0</text>
</g>
<g clip-path="url(#clip1200)">
<text style="fill:#000000; fill-opacity:1; font-family:Arial,Helvetica Neue,Helvetica,sans-serif; font-size:48px; text-anchor:middle;" transform="rotate(0, 427.775, 1918.71)" x="427.775" y="1918.71">7.5</text>
</g>
<g clip-path="url(#clip1200)">
<text style="fill:#000000; fill-opacity:1; font-family:Arial,Helvetica Neue,Helvetica,sans-serif; font-size:48px; text-anchor:middle;" transform="rotate(0, 509.536, 1918.71)" x="509.536" y="1918.71">10.0</text>
</g>
<g clip-path="url(#clip1200)">
<text style="fill:#000000; fill-opacity:1; font-family:Arial,Helvetica Neue,Helvetica,sans-serif; font-size:48px; text-anchor:middle;" transform="rotate(0, 591.297, 1918.71)" x="591.297" y="1918.71">12.5</text>
</g>
<g clip-path="url(#clip1200)">
<text style="fill:#000000; fill-opacity:1; font-family:Arial,Helvetica Neue,Helvetica,sans-serif; font-size:48px; text-anchor:end;" transform="rotate(0, 183.423, 1312.87)" x="183.423" y="1312.87">8380</text>
</g>
<g clip-path="url(#clip1200)">
<text style="fill:#000000; fill-opacity:1; font-family:Arial,Helvetica Neue,Helvetica,sans-serif; font-size:48px; text-anchor:end;" transform="rotate(0, 183.423, 1312.87)" x="183.423" y="1312.87">8380</text>
</g>
<g clip-path="url(#clip1200)">
<text style="fill:#000000; fill-opacity:1; font-family:Arial,Helvetica Neue,Helvetica,sans-serif; font-size:48px; text-anchor:end;" transform="rotate(0, 183.423, 1312.87)" x="183.423" y="1312.87">8380</text>
</g>
<g clip-path="url(#clip1200)">
<text style="fill:#000000; fill-opacity:1; font-family:Arial,Helvetica Neue,Helvetica,sans-serif; font-size:48px; text-anchor:end;" transform="rotate(0, 183.423, 1312.87)" x="183.423" y="1312.87">8380</text>
</g>
<g clip-path="url(#clip1200)">
<text style="fill:#000000; fill-opacity:1; font-family:Arial,Helvetica Neue,Helvetica,sans-serif; font-size:48px; text-anchor:end;" transform="rotate(0, 183.423, 1312.87)" x="183.423" y="1312.87">8380</text>
</g>
<g clip-path="url(#clip1200)">
<text style="fill:#000000; fill-opacity:1; font-family:Arial,Helvetica Neue,Helvetica,sans-serif; font-size:84px; text-anchor:middle;" transform="rotate(0, 411.423, 1406.53)" x="411.423" y="1406.53">Objective function</text>
</g>
<polyline clip-path="url(#clip1208)" style="stroke:#009af9; stroke-width:4; stroke-opacity:1; fill:none" points="
  215.196,1495.17 247.901,1643.98 280.605,1704.14 313.309,1757.84 346.014,1787.01 378.718,1817.71 411.423,1854.43 444.127,1855.86 476.831,1855.88 509.536,1855.89 
  542.24,1855.89 574.945,1855.89 607.649,1855.89 
  "/>
</svg>
