<?xml version="1.0" encoding="utf-8"?>
<svg xmlns="http://www.w3.org/2000/svg" xmlns:xlink="http://www.w3.org/1999/xlink" width="600" height="400" viewBox="0 0 2400 1600">
<defs>
  <clipPath id="clip8400">
    <rect x="0" y="0" width="2400" height="1600"/>
  </clipPath>
</defs>
<path clip-path="url(#clip8400)" d="
M0 1600 L2400 1600 L2400 0 L0 0  Z
  " fill="#ffffff" fill-rule="evenodd" fill-opacity="1"/>
<defs>
  <clipPath id="clip8401">
    <rect x="480" y="0" width="1681" height="1600"/>
  </clipPath>
</defs>
<path clip-path="url(#clip8400)" d="
M194.041 1487.47 L2352.76 1487.47 L2352.76 47.2441 L194.041 47.2441  Z
  " fill="#ffffff" fill-rule="evenodd" fill-opacity="1"/>
<defs>
  <clipPath id="clip8402">
    <rect x="194" y="47" width="2160" height="1441"/>
  </clipPath>
</defs>
<polyline clip-path="url(#clip8402)" style="stroke:#000000; stroke-width:2; stroke-opacity:0.1; fill:none" points="
  242.946,1487.47 242.946,47.2441 
  "/>
<polyline clip-path="url(#clip8402)" style="stroke:#000000; stroke-width:2; stroke-opacity:0.1; fill:none" points="
  636.673,1487.47 636.673,47.2441 
  "/>
<polyline clip-path="url(#clip8402)" style="stroke:#000000; stroke-width:2; stroke-opacity:0.1; fill:none" points="
  1030.4,1487.47 1030.4,47.2441 
  "/>
<polyline clip-path="url(#clip8402)" style="stroke:#000000; stroke-width:2; stroke-opacity:0.1; fill:none" points="
  1424.13,1487.47 1424.13,47.2441 
  "/>
<polyline clip-path="url(#clip8402)" style="stroke:#000000; stroke-width:2; stroke-opacity:0.1; fill:none" points="
  1817.86,1487.47 1817.86,47.2441 
  "/>
<polyline clip-path="url(#clip8402)" style="stroke:#000000; stroke-width:2; stroke-opacity:0.1; fill:none" points="
  2211.58,1487.47 2211.58,47.2441 
  "/>
<polyline clip-path="url(#clip8402)" style="stroke:#000000; stroke-width:2; stroke-opacity:0.1; fill:none" points="
  194.041,1452.36 2352.76,1452.36 
  "/>
<polyline clip-path="url(#clip8402)" style="stroke:#000000; stroke-width:2; stroke-opacity:0.1; fill:none" points="
  194.041,1226.15 2352.76,1226.15 
  "/>
<polyline clip-path="url(#clip8402)" style="stroke:#000000; stroke-width:2; stroke-opacity:0.1; fill:none" points="
  194.041,999.929 2352.76,999.929 
  "/>
<polyline clip-path="url(#clip8402)" style="stroke:#000000; stroke-width:2; stroke-opacity:0.1; fill:none" points="
  194.041,773.713 2352.76,773.713 
  "/>
<polyline clip-path="url(#clip8402)" style="stroke:#000000; stroke-width:2; stroke-opacity:0.1; fill:none" points="
  194.041,547.497 2352.76,547.497 
  "/>
<polyline clip-path="url(#clip8402)" style="stroke:#000000; stroke-width:2; stroke-opacity:0.1; fill:none" points="
  194.041,321.281 2352.76,321.281 
  "/>
<polyline clip-path="url(#clip8402)" style="stroke:#000000; stroke-width:2; stroke-opacity:0.1; fill:none" points="
  194.041,95.0652 2352.76,95.0652 
  "/>
<polyline clip-path="url(#clip8400)" style="stroke:#000000; stroke-width:4; stroke-opacity:1; fill:none" points="
  194.041,1487.47 2352.76,1487.47 
  "/>
<polyline clip-path="url(#clip8400)" style="stroke:#000000; stroke-width:4; stroke-opacity:1; fill:none" points="
  194.041,1487.47 194.041,47.2441 
  "/>
<polyline clip-path="url(#clip8400)" style="stroke:#000000; stroke-width:4; stroke-opacity:1; fill:none" points="
  242.946,1487.47 242.946,1470.19 
  "/>
<polyline clip-path="url(#clip8400)" style="stroke:#000000; stroke-width:4; stroke-opacity:1; fill:none" points="
  636.673,1487.47 636.673,1470.19 
  "/>
<polyline clip-path="url(#clip8400)" style="stroke:#000000; stroke-width:4; stroke-opacity:1; fill:none" points="
  1030.4,1487.47 1030.4,1470.19 
  "/>
<polyline clip-path="url(#clip8400)" style="stroke:#000000; stroke-width:4; stroke-opacity:1; fill:none" points="
  1424.13,1487.47 1424.13,1470.19 
  "/>
<polyline clip-path="url(#clip8400)" style="stroke:#000000; stroke-width:4; stroke-opacity:1; fill:none" points="
  1817.86,1487.47 1817.86,1470.19 
  "/>
<polyline clip-path="url(#clip8400)" style="stroke:#000000; stroke-width:4; stroke-opacity:1; fill:none" points="
  2211.58,1487.47 2211.58,1470.19 
  "/>
<polyline clip-path="url(#clip8400)" style="stroke:#000000; stroke-width:4; stroke-opacity:1; fill:none" points="
  194.041,1452.36 219.946,1452.36 
  "/>
<polyline clip-path="url(#clip8400)" style="stroke:#000000; stroke-width:4; stroke-opacity:1; fill:none" points="
  194.041,1226.15 219.946,1226.15 
  "/>
<polyline clip-path="url(#clip8400)" style="stroke:#000000; stroke-width:4; stroke-opacity:1; fill:none" points="
  194.041,999.929 219.946,999.929 
  "/>
<polyline clip-path="url(#clip8400)" style="stroke:#000000; stroke-width:4; stroke-opacity:1; fill:none" points="
  194.041,773.713 219.946,773.713 
  "/>
<polyline clip-path="url(#clip8400)" style="stroke:#000000; stroke-width:4; stroke-opacity:1; fill:none" points="
  194.041,547.497 219.946,547.497 
  "/>
<polyline clip-path="url(#clip8400)" style="stroke:#000000; stroke-width:4; stroke-opacity:1; fill:none" points="
  194.041,321.281 219.946,321.281 
  "/>
<polyline clip-path="url(#clip8400)" style="stroke:#000000; stroke-width:4; stroke-opacity:1; fill:none" points="
  194.041,95.0652 219.946,95.0652 
  "/>
<g clip-path="url(#clip8400)">
<text style="fill:#000000; fill-opacity:1; font-family:Arial,Helvetica Neue,Helvetica,sans-serif; font-size:48px; text-anchor:middle;" transform="rotate(0, 242.946, 1541.47)" x="242.946" y="1541.47">0</text>
</g>
<g clip-path="url(#clip8400)">
<text style="fill:#000000; fill-opacity:1; font-family:Arial,Helvetica Neue,Helvetica,sans-serif; font-size:48px; text-anchor:middle;" transform="rotate(0, 636.673, 1541.47)" x="636.673" y="1541.47">1000</text>
</g>
<g clip-path="url(#clip8400)">
<text style="fill:#000000; fill-opacity:1; font-family:Arial,Helvetica Neue,Helvetica,sans-serif; font-size:48px; text-anchor:middle;" transform="rotate(0, 1030.4, 1541.47)" x="1030.4" y="1541.47">2000</text>
</g>
<g clip-path="url(#clip8400)">
<text style="fill:#000000; fill-opacity:1; font-family:Arial,Helvetica Neue,Helvetica,sans-serif; font-size:48px; text-anchor:middle;" transform="rotate(0, 1424.13, 1541.47)" x="1424.13" y="1541.47">3000</text>
</g>
<g clip-path="url(#clip8400)">
<text style="fill:#000000; fill-opacity:1; font-family:Arial,Helvetica Neue,Helvetica,sans-serif; font-size:48px; text-anchor:middle;" transform="rotate(0, 1817.86, 1541.47)" x="1817.86" y="1541.47">4000</text>
</g>
<g clip-path="url(#clip8400)">
<text style="fill:#000000; fill-opacity:1; font-family:Arial,Helvetica Neue,Helvetica,sans-serif; font-size:48px; text-anchor:middle;" transform="rotate(0, 2211.58, 1541.47)" x="2211.58" y="1541.47">5000</text>
</g>
<g clip-path="url(#clip8400)">
<text style="fill:#000000; fill-opacity:1; font-family:Arial,Helvetica Neue,Helvetica,sans-serif; font-size:48px; text-anchor:end;" transform="rotate(0, 170.041, 1469.86)" x="170.041" y="1469.86">0</text>
</g>
<g clip-path="url(#clip8400)">
<text style="fill:#000000; fill-opacity:1; font-family:Arial,Helvetica Neue,Helvetica,sans-serif; font-size:48px; text-anchor:end;" transform="rotate(0, 170.041, 1243.65)" x="170.041" y="1243.65">1000</text>
</g>
<g clip-path="url(#clip8400)">
<text style="fill:#000000; fill-opacity:1; font-family:Arial,Helvetica Neue,Helvetica,sans-serif; font-size:48px; text-anchor:end;" transform="rotate(0, 170.041, 1017.43)" x="170.041" y="1017.43">2000</text>
</g>
<g clip-path="url(#clip8400)">
<text style="fill:#000000; fill-opacity:1; font-family:Arial,Helvetica Neue,Helvetica,sans-serif; font-size:48px; text-anchor:end;" transform="rotate(0, 170.041, 791.213)" x="170.041" y="791.213">3000</text>
</g>
<g clip-path="url(#clip8400)">
<text style="fill:#000000; fill-opacity:1; font-family:Arial,Helvetica Neue,Helvetica,sans-serif; font-size:48px; text-anchor:end;" transform="rotate(0, 170.041, 564.997)" x="170.041" y="564.997">4000</text>
</g>
<g clip-path="url(#clip8400)">
<text style="fill:#000000; fill-opacity:1; font-family:Arial,Helvetica Neue,Helvetica,sans-serif; font-size:48px; text-anchor:end;" transform="rotate(0, 170.041, 338.781)" x="170.041" y="338.781">5000</text>
</g>
<g clip-path="url(#clip8400)">
<text style="fill:#000000; fill-opacity:1; font-family:Arial,Helvetica Neue,Helvetica,sans-serif; font-size:48px; text-anchor:end;" transform="rotate(0, 170.041, 112.565)" x="170.041" y="112.565">6000</text>
</g>
<polyline clip-path="url(#clip8402)" style="stroke:#009af9; stroke-width:4; stroke-opacity:1; fill:none" points="
  958.514,1128.99 930.266,1125.51 903.132,1109.98 877.07,1060.39 852.036,1063.76 827.991,1147.09 804.895,1138.15 782.711,1083.35 761.403,1198.14 740.935,1249.18 
  721.276,1154.26 702.393,1193.21 684.255,1221.79 666.833,1100.63 650.1,1189.54 634.026,1267.1 618.587,1240.85 603.758,1239.68 589.514,1261.03 575.833,1253.3 
  562.691,1240.8 550.069,1311.36 537.944,1275.62 526.299,1287.49 1230.68,749.604 1191.69,894.752 1154.23,894.315 1118.26,1043.6 1083.7,992.014 1050.51,861.038 
  1018.63,939.444 988.011,980.343 958.598,987.482 930.346,951.196 903.209,1175.37 877.144,1073.74 852.108,1051.58 828.06,1088.02 804.961,1057.21 782.774,1102.44 
  761.463,1093.16 740.993,1116.72 721.332,1054.98 702.447,1171.15 684.307,1231.07 666.883,1148.97 650.147,1233.04 634.072,1200.96 1334.2,740.861 1291.12,776.409 
  1249.74,1045.98 1210,934.831 1171.82,1051.47 1135.15,867.254 1099.93,763.298 1066.1,1124.64 1033.6,962.522 1002.39,980.32 972.408,1032.62 943.611,1091.99 
  915.95,1005.75 889.382,1224.73 863.862,1137.77 839.35,1166.96 815.806,1235.33 793.191,1066.83 771.469,1242.55 750.604,1180.88 730.563,1223.43 711.313,1304.24 
  692.824,1109.33 675.064,1175.78 1373.57,712.435 1328.94,797.44 1286.07,808.058 1244.89,833.414 1205.33,1031.19 1167.34,818.519 1130.85,891.029 1095.8,1044.09 
  1062.13,916.496 1029.79,1069.94 998.727,1049.64 968.891,1068.26 940.233,985.589 912.706,981.868 886.266,1173.61 860.869,1018.99 836.475,1157.96 813.044,1058.88 
  790.538,1178.79 768.921,1117.96 748.157,1202.46 728.213,1247.63 709.056,1207 690.655,1220.56 1388.55,638.645 1343.32,928.329 1299.88,835.167 1258.16,1044.67 
  1218.08,860.756 1179.59,803.133 1142.61,907.281 1107.09,917.771 1072.98,1219.59 1040.21,1080.96 1008.74,1007.26 978.507,991.672 949.469,1037.82 921.577,1060.66 
  894.787,1206.25 869.054,1120.13 844.337,1157.91 820.596,1374.7 797.792,1060.08 775.888,1102.68 754.849,1162.53 734.64,1133.79 715.229,1182.43 696.585,1070.15 
  678.677,1272.43 1078.42,905.821 1052.35,1085.37 1027.1,1030.7 1002.63,1041.58 978.928,934.995 955.965,961.601 933.719,1054.4 912.166,1053.31 891.286,1181.46 
  871.057,1072.88 851.46,1021.21 832.474,1057.67 814.08,1147.79 796.26,1124.04 778.996,1260.74 762.271,1077.92 746.068,1199.54 730.37,1154.2 715.162,1181.76 
  700.429,1186.1 686.155,1222.75 672.326,1196.19 658.929,1220.97 645.95,1202.1 1468.85,619.222 1430.6,771.621 1393.54,687.441 1357.65,983.357 1322.87,567.704 
  1289.17,615.226 1256.53,645.903 1224.9,945.585 1194.27,943.472 1164.58,912.57 1135.83,837.223 1107.97,878.375 1080.98,817.721 1054.83,1122.76 1029.5,1127.98 
  1004.96,970.223 981.185,1006.16 958.152,943.161 935.837,1000.79 914.218,1091.7 893.274,1324.24 872.983,1176.52 853.326,1058.13 834.281,1101.55 1651.3,957.824 
  1607.36,470.365 1564.79,727.884 1523.55,852.386 1483.59,1053.74 1444.88,1002.13 1407.38,976.745 1371.05,851.332 1335.85,727.548 1301.75,664.043 1268.72,949.392 
  1236.71,827.363 1205.71,1060.87 1175.67,793.66 1146.57,844.311 1118.37,943.823 1091.06,1017.35 1064.6,913.961 1038.96,1087.43 1014.13,1049.72 990.064,1063.83 
  966.754,918.708 944.17,982.844 922.292,1128.93 1736.57,548.423 1689.97,719.488 1644.82,617.811 1601.08,930.172 1558.7,969.74 1517.65,822.394 1477.88,475.609 
  1439.35,743.233 1402.02,887.758 1365.86,854.903 1330.82,848.484 1296.88,707.487 1263.99,841.119 1232.14,878.601 1201.27,797.919 1171.37,896.587 1142.41,983.194 
  1114.34,1000.71 1087.15,790.978 1060.81,942.917 1035.3,893.5 1010.57,1001.66 986.623,1008.58 963.42,1054.39 1776.41,576.665 1728.57,517.284 1682.22,693.361 
  1637.31,791.652 1593.8,567.968 1551.66,571.708 1510.82,671.405 1471.27,818.997 1432.94,836.964 1395.81,601.738 1359.84,906.031 1324.99,917.487 1291.23,956.442 
  1258.53,1157.51 1226.84,887.24 1196.14,1110.78 1166.4,949.617 1137.59,753.553 1109.67,909.761 1082.63,1198.6 1056.43,817.625 1031.05,1029.71 1006.46,940.31 
  982.64,1000.59 959.561,1072.46 987.414,1054.47 906.291,1087.92 834.007,1070.36 769.6,1178.21 712.212,1195.35 661.077,1187.02 615.514,1204.6 574.915,1292.13 
  538.741,1327.76 506.509,1301.75 477.789,1373.27 452.198,1332.68 429.396,1336.64 409.079,1342.78 390.976,1381.07 374.845,1378.09 360.472,1374.28 347.666,1394.41 
  336.255,1396.76 326.087,1403.67 317.027,1407.66 308.955,1414.57 301.762,1413.61 295.353,1412.92 1034.11,1091.93 947.899,1081.58 871.081,960.78 802.634,1163.25 
  741.646,1176.74 687.304,1173.49 638.883,1214.64 595.738,1271.5 557.295,1254.79 523.041,1308.03 492.519,1241.42 465.324,1268.26 441.091,1323.24 419.5,1351.95 
  400.261,1355.84 383.119,1387.79 367.844,1370.96 354.234,1380.41 342.107,1402.05 331.302,1404.21 321.674,1416.37 313.095,1424.44 305.451,1428.73 298.64,1427.64 
  1037.04,995.499 950.509,1041.2 873.407,1185.57 804.706,1044.04 743.492,1144.37 688.949,1237.99 640.348,1209.45 597.044,1242.23 558.459,1240.6 524.078,1277.71 
  493.443,1354.78 466.147,1365.84 441.825,1355.04 420.154,1316.97 400.843,1385.87 383.638,1380.67 368.307,1390.02 354.646,1407.39 342.474,1389.83 331.629,1394.95 
  321.965,1397.39 313.355,1416.89 305.682,1415.91 298.846,1412.88 1037.22,967.034 950.672,997.701 873.553,1014.82 804.836,1171.75 743.608,1156 689.052,1095.75 
  640.44,1301.99 597.126,1311.33 558.532,1272.81 524.143,1254.83 493.501,1314.03 466.199,1308.39 441.871,1368.81 420.195,1313.01 400.88,1372.75 383.67,1381.95 
  368.336,1380.33 354.672,1361.36 342.497,1381.42 331.649,1397 321.984,1406.62 313.371,1424.21 305.697,1422.03 298.859,1407.49 1037.23,922.646 950.683,1163.41 
  873.562,1091.81 804.845,1134.35 743.615,1140.97 689.058,1139.37 640.446,1144.08 597.131,1243.49 558.536,1321.75 524.147,1334.62 493.505,1272.91 466.202,1348.55 
  441.874,1344.67 420.197,1342.99 400.882,1399.15 383.672,1388.14 368.337,1388.03 354.674,1382.14 342.499,1386.91 331.651,1409.1 321.985,1402.66 313.372,1410.04 
  305.698,1412.68 298.86,1416.03 292.767,1426.31 1149.33,944.732 999.957,899.556 875.2,1102.1 771.003,1056.66 683.978,1151.59 611.295,1238.12 550.59,1231.2 
  499.89,1318.46 457.545,1341.57 422.178,1334.33 392.641,1364.8 367.97,1375.27 347.366,1389.62 330.157,1405.62 315.785,1420.64 303.781,1418.14 293.755,1427.43 
  285.381,1424.96 278.388,1435.32 272.547,1427.98 267.669,1438.18 263.594,1440.15 260.191,1442.96 257.349,1444.2 1161.36,995.981 1010,994.215 883.592,1033.73 
  778.012,1344.91 689.832,1195.27 616.184,1198.99 554.674,1224.55 503.3,1380.16 460.393,1343.68 424.557,1349.06 394.627,1355.49 369.63,1392.44 348.752,1372.78 
  331.315,1409.05 316.751,1416.26 304.588,1410.4 294.429,1426.57 285.945,1426.39 278.858,1435.54 272.94,1436.6 267.997,1436.2 263.868,1440.52 260.42,1438.95 
  257.54,1446.71 1161.52,900.804 1010.14,1115.46 883.703,1115.75 778.105,1185.05 689.91,1227.08 616.249,1255.98 554.728,1281.22 503.345,1272.04 460.431,1304.27 
  424.589,1372.14 394.654,1350.51 369.652,1362.04 348.77,1396.04 331.33,1429.43 316.764,1406.09 304.599,1421.56 294.438,1432.93 285.952,1430.33 278.865,1428.71 
  272.945,1429.85 268.001,1438.92 263.872,1437.01 260.423,1441.52 257.543,1440.31 1161.52,839.222 1010.14,1131.8 883.705,1022.33 778.106,1160.04 689.911,1246.67 
  616.25,1252.88 554.728,1327.75 503.346,1273.16 460.431,1283.28 424.589,1336.47 394.654,1351.85 369.652,1367.31 348.771,1388.88 331.33,1412.15 316.764,1404.23 
  304.599,1412.2 294.438,1421.95 285.952,1433.58 278.865,1431.01 272.945,1434.2 268.001,1439.49 263.872,1437.71 260.423,1443.34 257.543,1443.44 1161.52,824.387 
  1010.14,985.041 883.705,1171.93 778.106,1064.89 689.911,1051.15 616.25,1236.81 554.728,1342.97 503.346,1313.76 460.431,1347.05 424.589,1369.81 394.654,1375.66 
  369.652,1386.53 348.771,1378.85 331.33,1393.48 316.764,1408.14 304.599,1412.91 294.438,1420.71 285.952,1430.75 278.865,1429.95 272.945,1441.69 268.001,1440.34 
  263.872,1443.6 260.423,1442.6 257.543,1443.86 255.137,1445.47 1090.25,1056.84 1012.56,1145.11 942.002,984.947 877.909,1029.52 819.693,1237.97 766.814,1145.33 
  718.783,1162.83 675.156,1216.34 635.529,1144.99 599.535,1242.42 566.841,1253.6 537.145,1310.75 510.171,1306.27 485.671,1280.57 463.417,1294.72 443.203,1358.03 
  424.842,1304.38 408.165,1378.42 393.017,1370.77 379.258,1378.2 366.76,1393.96 355.408,1396.67 345.097,1397.77 335.731,1400.61 1174.53,934.58 1089.12,891.485 
  1011.53,1099.72 941.067,1092.62 877.06,1167.01 818.921,1114.1 766.113,1161.7 718.147,1168.76 674.578,1225.03 635.004,1185.03 599.058,1230.61 566.408,1233.22 
  536.751,1344.24 509.814,1294.92 485.346,1263.51 463.122,1343.44 442.935,1330.71 424.599,1340.82 407.944,1337.15 392.816,1375.35 379.075,1383.52 366.594,1379.91 
  355.258,1368.99 344.96,1389.11 1182.91,764.501 1096.73,967.306 1018.45,980.324 947.349,1106.6 882.766,1156.27 824.104,1096.83 770.821,1105.69 722.423,1143.73 
  678.462,1192.69 638.532,1166.5 602.263,1235.66 569.319,1335.16 539.395,1329.89 512.215,1252.29 487.527,1285.84 465.103,1351.27 444.735,1342.98 426.234,1372.58 
  409.429,1395.28 394.165,1346.07 380.3,1378.22 367.707,1383.77 356.268,1402.52 345.878,1378.41 1183.74,916.327 1097.49,1070.61 1019.14,993.232 947.974,1094.96 
  883.334,1044.67 824.62,1134.36 771.289,1242.69 722.848,1202.33 678.848,1130.01 638.883,1151.63 602.581,1219.57 569.608,1241.84 539.658,1302.41 512.454,1349.57 
  487.744,1323.06 465.3,1321.31 444.914,1330.8 426.396,1337.79 409.577,1320.53 394.299,1365.46 380.422,1365.98 367.818,1391.98 356.369,1416.48 345.97,1397.15 
  1183.83,787.551 1097.56,926.18 1019.21,881.577 948.036,1068.88 883.39,1068.01 824.671,1155.08 771.336,1075.34 722.89,1146.28 678.887,1215.6 638.918,1247.69 
  602.613,1289.68 569.637,1233.13 539.684,1256.5 512.478,1285.63 487.766,1394.49 465.32,1283.07 444.931,1300.94 426.412,1354.5 409.591,1362.36 394.312,1387.96 
  380.434,1371.82 367.829,1383.14 356.379,1401.43 345.979,1388.42 336.532,1379.38 754.018,1148.21 734.175,1198.81 715.104,1232.71 696.772,1178.82 679.153,1230.07 
  662.217,1219.63 645.939,1182.58 630.293,1270.24 615.255,1278.09 600.8,1189.26 586.907,1310.06 573.553,1250.49 560.717,1259.44 548.38,1218.91 536.521,1322.54 
  525.124,1323.42 514.168,1292.22 503.638,1307.76 493.517,1323.24 483.789,1331.97 474.438,1324.57 465.451,1259.76 456.812,1327.24 448.509,1328.34 951.6,915.783 
  924.087,1113.52 897.642,921.1 872.224,1115.95 847.792,1148.27 824.309,1068.99 801.738,1110.14 780.044,1057.51 759.191,1070.11 739.148,1173.02 719.883,1147.83 
  701.367,1174.09 683.569,1173.7 666.462,1165.67 650.019,1224.63 634.215,1217.58 619.024,1280.57 604.423,1218.9 590.389,1259.85 576.899,1238.19 563.934,1311.77 
  551.472,1192.63 539.493,1266.19 527.98,1229.44 1027.99,949.649 997.507,1029.53 968.212,1162.89 940.054,1147.5 912.989,1210.04 886.975,1146.48 861.971,1069.26 
  837.938,1117.89 814.837,1120.35 792.634,1102.79 771.293,1149.35 750.78,1113.33 731.064,1062.17 712.113,1206.44 693.898,1175.8 676.39,1204.94 659.561,1258.82 
  643.387,1263.34 627.84,1305.38 612.896,1295.32 598.533,1271.3 584.728,1201.38 571.458,1299.51 558.704,1271.45 1057.52,1190.47 1025.89,1077.19 995.494,1120.37 
  966.277,1098.37 938.194,1045.13 911.201,1004.57 885.257,1011.77 860.32,1047.9 836.35,1267.74 813.312,1223.74 791.168,1174.44 769.883,1118.24 749.425,1208.7 
  729.761,1107.58 710.861,1184.72 692.695,1292.01 675.233,1176.87 658.45,1239 642.318,1184.75 626.813,1236.01 611.91,1282.8 597.585,1309.79 583.816,1203.09 
  570.582,1190.76 1068.93,801.255 1036.87,951.171 1006.04,1070.56 976.415,1102.53 947.938,1105.39 920.568,1041.35 894.259,1079.18 868.972,1078.28 844.667,1095.52 
  821.306,1100.35 798.851,1103.91 777.269,1089.61 756.524,1152.73 736.585,1055.01 717.419,1161.14 698.998,1240.4 681.292,1205.41 664.274,1228.82 647.916,1219.6 
  632.193,1160.94 617.081,1287.58 602.555,1232.19 588.594,1266.49 575.174,1297.26 562.276,1302.16 1036.4,1105.63 1022.87,1077.19 1009.58,913.723 996.51,884.745 
  983.666,966.08 971.04,884.389 958.629,1039.57 946.43,999.216 934.439,1038.61 922.653,1124.37 911.067,1057.99 899.679,1122.43 888.484,1029.77 877.481,1066.48 
  866.665,1136.8 856.034,1122.77 845.584,1215.43 835.312,970.007 825.215,982.642 815.29,1132.16 805.534,1128.84 795.944,1183.42 786.518,1258.49 777.253,1196.94 
  1561.6,814.785 1539.12,953.185 1517.03,776.1 1495.31,690.114 1473.96,841.563 1452.98,1049.01 1432.35,816.164 1412.08,662.065 1392.15,592.936 1372.56,837.764 
  1353.31,1021.1 1334.38,887.634 1315.78,710.826 1297.49,733.628 1279.52,850.813 1261.85,827.768 1244.48,976.621 1227.41,827.763 1210.63,815.538 1194.14,709.294 
  1177.92,886.582 1161.99,902.018 1146.32,947.875 1130.92,1092.64 1909.24,451.372 1880.83,594.079 1852.92,576.451 1825.47,336.902 1798.5,645.626 1771.98,225.178 
  1745.92,616.493 1720.3,526.562 1695.12,767.105 1670.37,447.592 1646.04,599.712 1622.12,649.009 1598.61,727.577 1575.51,787.673 1552.79,861.503 1530.47,551.234 
  1508.52,901.775 1486.95,760.827 1465.74,796.242 1444.9,847.717 1424.41,963.302 1404.27,811.936 1384.48,684.638 1365.02,946.806 2139.35,169.607 2107.02,232.806 
  2075.25,282.615 2044.02,605.201 2013.32,224.359 1983.14,817.129 1953.48,519.602 1924.32,727.431 1895.66,296.381 1867.49,269.116 1839.8,644.889 1812.58,471.027 
  1785.83,445.135 1759.53,304.954 1733.68,562.521 1708.27,335.964 1683.29,545.833 1658.74,618.414 1634.61,630.098 1610.89,655.191 1587.57,740.863 1564.65,604.718 
  1542.12,609.999 1519.98,660.43 2291.66,449.52 2256.74,611.148 2222.41,585.788 2188.67,218.828 2155.51,137.035 2122.91,511.441 2090.86,348.234 2059.37,566.784 
  2028.4,563.288 1997.97,444.362 1968.06,513.913 1938.65,409.301 1909.75,407.883 1881.34,358.862 1853.41,88.0053 1825.96,917.319 1798.98,570.823 1772.45,660.936 
  1746.38,650.377 1720.76,296.621 1695.57,749.249 1670.81,787.709 1646.47,518.937 1622.54,542.382 1599.03,671.996 878.208,1068.62 862.156,1168.27 846.511,1194.66 
  831.26,1099.99 816.395,1111.03 801.905,1212.29 787.782,1159.75 774.015,1132.66 760.597,1091.12 747.517,1190.33 734.768,1060.45 722.341,1210.65 710.228,1161.54 
  698.421,1203.35 686.912,1275.64 675.694,1169.16 664.76,1213.49 654.102,1163.3 643.713,1313.15 633.587,1209.66 623.716,1248.94 614.095,1233.94 604.717,1249.53 
  595.576,1246.36 1221.93,682.758 1197.19,893.092 1173.08,943.024 1149.58,1110.79 1126.67,921.192 1104.34,1279.09 1082.58,1083.6 1061.36,973.718 1040.68,945.927 
  1020.52,976.11 1000.88,1013.7 981.727,945.02 963.059,1150.49 944.864,1135.38 927.128,980.104 909.841,1174.96 892.99,1184.17 876.565,1104.41 860.556,1255.49 
  844.95,1131.86 829.739,1224.46 814.912,1065.27 800.46,1083.28 786.373,1107.35 1407.9,624.586 1378.47,823.567 1349.78,551.996 1321.81,601.514 1294.55,889.457 
  1267.98,1091.35 1242.08,838.585 1216.83,933.059 1192.23,968.961 1168.24,850.239 1144.86,858.867 1122.07,875.262 1099.86,1179.52 1078.21,787.851 1057.1,886.38 
  1036.53,1003.89 1016.48,1074.26 996.933,954.3 977.882,969.659 959.312,1060.52 941.212,993.628 923.568,960.653 906.371,1117.32 889.608,1118.56 1508.53,501.262 
  1476.55,785.755 1445.38,582.601 1415,824.028 1385.39,776.345 1356.52,1040.17 1328.38,1079.16 1300.96,869.587 1274.22,772.486 1248.17,951.703 1222.77,787.009 
  1198.01,860.993 1173.88,745.27 1150.35,900.529 1127.43,989.195 1105.08,1087.62 1083.29,939.643 1062.06,971.469 1041.36,925.584 1021.19,898.83 1001.53,983.086 
  982.359,1114.86 963.676,1052.51 945.465,999.853 1562.98,797.814 1529.62,730.517 1497.11,841.463 1465.42,570.424 1434.53,515.335 1404.43,656.377 1375.08,674.101 
  1346.47,766.555 1318.59,1035.53 1291.41,922.144 1264.92,839.984 1239.1,999.464 1213.93,853.771 1189.39,784.592 1165.48,900.547 1142.17,919.826 1119.45,941.473 
  1097.3,934.864 1075.71,1030.19 1054.67,1007.43 1034.16,1101.5 1014.17,986.211 994.681,1022.04 975.687,985.401 957.173,1085.2 760.893,1264.72 719.094,1231.34 
  680.667,1224.26 645.342,1231.2 612.868,1308.23 583.015,1186.81 555.57,1312.45 530.341,1295.77 507.148,1341.13 485.826,1309.62 466.225,1342.43 448.206,1352.94 
  431.641,1366.43 416.413,1332.97 402.414,1379.16 389.544,1364.45 377.714,1367.53 366.838,1368.67 356.839,1376.98 347.648,1386.18 339.198,1414.53 331.43,1400.89 
  324.289,1396.08 317.725,1427 829.637,1121.42 782.29,1175.1 738.764,1040.09 698.75,1176.92 661.966,1223.46 628.15,1206.6 597.064,1230.94 568.485,1280.27 
  542.214,1222.08 518.062,1282.39 495.86,1301.12 475.449,1326.48 456.686,1293.11 439.436,1319.13 423.579,1381.09 409.002,1341.04 395.601,1352.8 383.281,1393.87 
  371.956,1391.22 361.544,1379.43 351.973,1392.53 343.174,1390.11 335.086,1391.61 327.65,1407.57 838.761,1164.11 790.678,1119.45 746.475,1137.31 705.839,1181.6 
  668.483,1237.42 634.141,1212.53 602.571,1235.41 573.548,1241.76 546.868,1293.23 522.341,1324.51 499.793,1322.59 479.065,1313.85 460.01,1328.1 442.492,1344.42 
  426.388,1331.28 411.584,1337.87 397.975,1371.01 385.464,1354.64 373.962,1380.29 363.389,1385.44 353.669,1405.06 344.733,1373.17 336.519,1396.2 328.967,1394.77 
  839.972,1026.6 791.791,1192.64 747.498,1212.69 706.78,1229.38 669.347,1192.14 634.936,1248.55 603.302,1185.91 574.22,1228.65 547.486,1258.47 522.909,1278.01 
  500.315,1256.88 479.545,1332.7 460.451,1334.46 442.898,1328.53 426.761,1347.04 411.927,1355.03 398.29,1350.75 385.753,1375.73 374.228,1373.57 363.634,1384.82 
  353.894,1390.16 344.94,1394.89 336.709,1404.57 329.142,1390.37 840.133,1004.09 791.939,1049.46 747.634,1148 706.905,1217.29 669.462,1149.09 635.042,1282.81 
  603.399,1240.64 574.309,1239.79 547.568,1324.18 522.984,1328.83 500.384,1268.3 479.609,1328.75 460.509,1320.67 442.952,1376.93 426.811,1329.26 411.972,1341.45 
  398.332,1349.02 385.792,1380.05 374.264,1365.16 363.666,1387.87 353.924,1403.29 344.968,1383.61 336.734,1394.95 329.165,1399.88 322.207,1418.87 1167.3,813.625 
  1079.36,1091.27 999.787,990.768 927.785,1024.81 862.633,1039.64 803.678,1206.7 750.333,1169.82 702.063,1245.53 658.384,1226.5 618.861,1139.52 583.099,1226.66 
  550.738,1283.74 521.456,1332.82 494.96,1322.7 470.984,1359.87 449.29,1311.72 429.659,1374.08 411.896,1327.02 395.823,1357.24 381.279,1413.03 368.119,1395.89 
  356.21,1384.04 345.435,1412.27 335.684,1377.97 1251.21,1000.59 1155.29,802.076 1068.5,785.458 989.957,993.654 918.89,1116.68 854.584,1063.49 796.395,1171.32 
  743.743,1237.7 696.099,1150.21 652.988,1295.68 613.979,1234.2 578.681,1282.87 546.74,1274.4 517.839,1327.88 491.687,1378.4 468.023,1295.44 446.61,1349.4 
  427.234,1324.48 409.702,1384 393.837,1369.89 379.482,1370.06 366.493,1369.03 354.739,1419.11 344.104,1388.77 1258.83,895.364 1162.19,984.064 1074.73,866.899 
  995.601,1006.43 923.997,955.374 859.205,1089.53 800.577,1186.98 747.527,1184.11 699.523,1276.24 656.087,1247.79 616.782,1177.05 581.217,1268.52 549.036,1318.03 
  519.916,1276.68 493.566,1337.03 469.723,1358.07 448.149,1315.82 428.627,1356.3 410.962,1392.84 394.978,1340.59 380.514,1383.25 367.426,1381.39 355.584,1389.43 
  344.868,1385.06 1259.52,596.78 1162.81,977.217 1075.3,879.723 996.114,921.866 924.461,1101 859.625,1125.08 800.957,1155.22 747.87,1140.54 699.834,1133.23 
  656.368,1150.6 617.037,1208.15 581.448,1242.17 549.244,1283.42 520.104,1313.42 493.737,1290.44 469.878,1319.01 448.288,1327.97 428.753,1348.22 411.076,1356.11 
  395.081,1361.98 380.608,1352.71 367.511,1364.93 355.66,1389.53 344.937,1390.73 1259.59,709.099 1162.87,871.865 1075.35,983.026 996.16,1071.29 924.503,1156.55 
  859.663,1112.91 800.991,1168.44 747.901,1218.21 699.862,1130.84 656.393,1235.06 617.06,1281.62 581.468,1233.08 549.263,1308.64 520.121,1244.2 493.752,1297.66 
  469.892,1336.31 448.301,1315.32 428.765,1320.13 411.087,1348.96 395.09,1355.34 380.616,1352.4 367.519,1371.38 355.667,1384.99 344.944,1394.25 335.24,1393.17 
  
  "/>
<path clip-path="url(#clip8400)" d="
M1989.93 251.724 L2280.76 251.724 L2280.76 130.764 L1989.93 130.764  Z
  " fill="#ffffff" fill-rule="evenodd" fill-opacity="1"/>
<polyline clip-path="url(#clip8400)" style="stroke:#000000; stroke-width:4; stroke-opacity:1; fill:none" points="
  1989.93,251.724 2280.76,251.724 2280.76,130.764 1989.93,130.764 1989.93,251.724 
  "/>
<polyline clip-path="url(#clip8400)" style="stroke:#009af9; stroke-width:4; stroke-opacity:1; fill:none" points="
  2013.93,191.244 2157.93,191.244 
  "/>
<g clip-path="url(#clip8400)">
<text style="fill:#000000; fill-opacity:1; font-family:Arial,Helvetica Neue,Helvetica,sans-serif; font-size:48px; text-anchor:start;" transform="rotate(0, 2181.93, 208.744)" x="2181.93" y="208.744">y1</text>
</g>
</svg>
